<svg viewBox="0 0 18 26" xmlns="http://www.w3.org/2000/svg">
    <g stroke="none" stroke-width="1" fill="none" fill-rule="evenodd">
        <g transform="translate(-568.000000, -277.000000)" fill="#00304C">
            <g transform="translate(46.000000, 264.000000)">
                <g transform="translate(522.000000, 13.000000)">
                    <path d="M14.0947637,24.9185485 L12.6639518,24.9185485 C13.140357,24.4418858 13.4353872,23.7838998 13.4353872,23.0582974 C13.4353872,22.9353724 13.4263236,22.8146103 13.4098444,22.6960626 L14.5810049,22.6960626 C14.7943083,22.6960626 14.9672376,22.5231849 14.9672376,22.3098299 C14.9672376,22.096475 14.7943083,21.9235972 14.5810049,21.9235972 L13.1778988,21.9235972 C13.0482276,21.6530799 12.8736504,21.4080023 12.6639003,21.1980978 L14.0933217,21.1980978 C14.0936822,21.1980978 14.1713407,21.1982007 14.1717527,21.1982007 C14.1721132,21.1982007 14.1725252,21.1981493 14.1728857,21.1981493 C15.1982047,21.1986642 15.9548603,22.0329783 15.9548603,23.0584004 C15.9549633,24.0840799 15.1205462,24.9185485 14.0947637,24.9185485 L14.0947637,24.9185485 Z M10.5195364,24.9185485 L6.5942279,24.9185485 C5.56849688,24.9185485 4.73397679,24.0840284 4.73397679,23.0582974 C4.73397679,22.9343424 4.74649073,22.8132714 4.76966469,22.6960626 L12.3440997,22.6960626 C12.3672736,22.8133228 12.3797361,22.9343939 12.3797361,23.0583489 C12.3797361,24.0840799 11.5452675,24.9185485 10.5195364,24.9185485 L10.5195364,24.9185485 Z M3.93576257,21.9235972 L1.54642418,21.9235972 C1.88682392,21.482777 2.34283598,21.1980978 2.94165113,21.1980978 L2.94546196,21.1980978 C2.9469039,21.1980978 2.94839733,21.1981493 2.94978777,21.1980978 L4.44976103,21.1980978 C4.23995944,21.4080023 4.06553675,21.6530799 3.93576257,21.9235972 L3.93576257,21.9235972 Z M3.01884617,24.9185485 C1.99316665,24.9185485 1.15869806,24.0840284 1.15869806,23.0582974 C1.15869806,22.9343424 1.1711605,22.8132714 1.19443746,22.6960626 L3.70381697,22.6960626 C3.68738921,22.8146103 3.67827411,22.9353724 3.67827411,23.0583489 C3.67827411,23.7838998 3.97330439,24.4418858 4.44970953,24.9185485 L3.01884617,24.9185485 Z M7.51304971,7.65538933 L7.86158609,7.65538933 L7.86158609,20.1166462 L3.86927905,20.1166462 L7.51304971,7.65538933 Z M6.50961719,7.23362324 L6.09119845,8.66464109 L5.58693305,7.23362324 L6.50961719,7.23362324 Z M10.5194849,21.1980978 C11.1183001,21.1980978 11.6516102,21.482777 11.9920614,21.9235972 L5.12159991,21.9235972 C5.46205115,21.482777 5.99536125,21.1980978 6.5941764,21.1980978 L10.5194849,21.1980978 Z M8.06417801,6.46110637 L9.04953484,6.46110637 L9.04953484,5.91497335 L8.06417801,5.91497335 L8.06417801,6.46110637 Z M8.06417801,3.77091846 C8.06417801,3.49926814 8.2852061,3.27829154 8.55685642,3.27829154 C8.82850675,3.27829154 9.04953484,3.49926814 9.04953484,3.77091846 L9.04953484,5.14255947 L8.06417801,5.14255947 L8.06417801,3.77091846 Z M9.25202376,7.65538933 L9.60056014,7.65538933 L10.7591037,11.6172612 C10.4651034,11.7539361 10.2076664,11.9590514 10.0038901,12.2209172 C9.61049919,12.7263155 9.47500876,13.3723026 9.63228271,13.9933647 L10.0532763,15.6551952 C10.2851189,16.5709787 11.1068676,17.21058 12.0515928,17.21058 L12.3946189,17.21058 L13.2443823,20.1166462 L9.25202376,20.1166462 L9.25202376,7.65538933 Z M11.5268313,7.23362324 L11.0225144,8.66464109 L10.6040957,7.23362324 L11.5268313,7.23362324 Z M12.4003866,16.1291285 L12.0515928,16.1291285 C11.6024814,16.1291285 11.2118714,15.8250861 11.1016148,15.3897246 L10.6806212,13.7277911 C10.6058466,13.4326579 10.6702187,13.1254741 10.8573098,12.8851859 C10.9855905,12.7203418 11.1585198,12.603751 11.3528721,12.5467946 L12.4003866,16.1291285 Z M14.7074832,20.1659295 L13.5826191,16.3190005 L13.5798383,16.3084949 L13.5782933,16.3042206 L11.7184027,9.94368926 L12.5652307,7.54060098 C12.9237577,7.5132557 13.207098,7.21281817 13.207098,6.84744205 C13.207098,6.46409323 12.8952279,6.15222321 12.5118791,6.15222321 L10.1309349,6.15222321 L10.1309349,3.77091846 C10.1309349,3.16267923 9.78579733,2.62040854 9.25202376,2.35864577 L9.25202376,0.695218835 C9.25202376,0.31187002 8.94015374,0 8.55680492,0 C8.17350761,0 7.86158609,0.31187002 7.86158609,0.695218835 L7.86158609,2.35859427 C7.32781252,2.62035704 6.98272649,3.16262773 6.98272649,3.77086696 L6.98272649,6.15212022 L4.60183371,6.15212022 C4.2184849,6.15212022 3.90661488,6.46399024 3.90661488,6.84733905 C3.90661488,7.21271518 4.18990368,7.51315271 4.54837911,7.54049798 L5.39525865,9.94358626 L2.40612664,20.16629 C1.40619596,20.3529691 0.550304332,21.0631738 0.188224062,22.0233483 C0.170405861,22.0627955 0.156295494,22.1032727 0.146253444,22.1441103 C0.0491802954,22.4401191 0,22.7476633 0,23.0583489 C0,24.6803717 1.31962835,26 2.94165113,26 L14.1720617,26 C15.7940845,26 17.1137128,24.6803717 17.1137128,23.0582974 C17.1137128,21.6287729 16.0930801,20.4201736 14.7074832,20.1659295 L14.7074832,20.1659295 Z"></path>
                </g>
            </g>
        </g>
    </g>
</svg>
