<svg viewBox="0 0 23 23" version="1.1" xmlns="http://www.w3.org/2000/svg">
    <g id="Symbols" stroke="none" stroke-width="1" fill="none" fill-rule="evenodd">
        <g id="footer/desktop" transform="translate(-915.000000, -291.000000)" fill="#A1C6D7">
            <g id="Footer">
                <path d="M926.5,291 C932.851275,291 938,296.148725 938,302.5 C938,308.851275 932.851275,314 926.5,314 C920.148725,314 915,308.851275 915,302.5 C915,296.148725 920.148725,291 926.5,291 Z M927.666616,296.023763 C925.975593,296.023763 924.81873,297.094199 924.81873,299.059632 L924.81873,300.753206 L922.90625,300.753206 L922.90625,303.049512 L924.81873,303.049512 L924.81873,308.942011 L927.105063,308.942011 L927.105063,303.049512 L929.012528,303.049512 L929.298223,300.753206 L927.105063,300.753206 L927.105063,299.286882 C927.105063,298.621936 927.283888,298.168836 928.203283,298.168836 L929.375,298.168236 L929.375,296.114183 C929.172641,296.086177 928.477211,296.023763 927.666616,296.023763 Z" id="FB-logo"></path>
            </g>
        </g>
    </g>
</svg>
