<svg viewBox="0 0 23 23" version="1.1" xmlns="http://www.w3.org/2000/svg" xmlns:xlink="http://www.w3.org/1999/xlink">
    <g id="Symbols" stroke="none" stroke-width="1" fill="none" fill-rule="evenodd">
        <g id="footer/desktop" transform="translate(-948.000000, -291.000000)" fill="#DCE9F0">
            <g id="Footer">
                <path d="M959.500082,291.000016 C965.851357,291.000016 971.000082,296.148742 971.000082,302.500016 C971.000082,308.851291 965.851357,314.000016 959.500082,314.000016 C953.148808,314.000016 948.000082,308.851291 948.000082,302.500016 C948.000082,296.148742 953.148808,291.000016 959.500082,291.000016 Z M962.800656,295.000034 C965.070597,295.000034 966.91745,296.846798 966.917273,299.116651 L966.917273,299.116651 L966.917273,305.800651 C966.917273,308.070504 965.070597,309.917181 962.800656,309.917181 L962.800656,309.917181 L956.116567,309.917181 C953.846803,309.917181 952.000126,308.070592 952.000126,305.800651 L952.000126,305.800651 L952.000126,299.116651 C952.000126,296.846798 953.846803,295.000034 956.116567,295.000034 L956.116567,295.000034 Z M962.800656,296.323563 L956.116567,296.323563 C954.576597,296.323563 953.323656,297.576592 953.323656,299.116651 L953.323656,299.116651 L953.323656,305.800651 C953.323656,307.340798 954.576597,308.593828 956.116567,308.593651 L956.116567,308.593651 L962.800744,308.593651 C964.340891,308.593651 965.59392,307.340798 965.59392,305.800651 L965.593744,305.800651 L965.593744,299.116651 C965.593744,297.576592 964.340803,296.323563 962.800656,296.323563 L962.800656,296.323563 Z M959.458682,298.614998 C961.578182,298.614998 963.302476,300.339292 963.302476,302.458792 C963.302476,304.578204 961.578182,306.30241 959.458682,306.30241 C957.339182,306.30241 955.614888,304.578204 955.614888,302.458792 C955.614888,300.339292 957.339182,298.614998 959.458682,298.614998 Z M959.458682,299.93844 C958.068976,299.93844 956.938417,301.068998 956.938417,302.458704 C956.938417,303.848322 958.069064,304.978792 959.458682,304.978792 C960.848388,304.978792 961.978947,303.848322 961.978947,302.458704 C961.978947,301.068998 960.848388,299.93844 959.458682,299.93844 Z M963.463691,297.492751 C963.719573,297.492751 963.970161,297.595987 964.150161,297.776869 C964.331044,297.956869 964.434279,298.207457 964.434279,298.46334 C964.434279,298.71834 964.331044,298.968928 964.150161,299.14981 C963.969279,299.32981 963.719573,299.433928 963.463691,299.433928 C963.208691,299.433928 962.958191,299.32981 962.778103,299.14981 C962.59722,298.968928 962.493103,298.718428 962.493103,298.46334 C962.493103,298.207457 962.597132,297.956869 962.778103,297.776869 C962.958191,297.595987 963.208691,297.492751 963.463691,297.492751 Z" id="LI-logo"></path>
            </g>
        </g>
    </g>
</svg>
