<svg width="18px" height="18px" viewBox="0 0 18 18" version="1.1" xmlns="http://www.w3.org/2000/svg" xmlns:xlink="http://www.w3.org/1999/xlink">
    <defs>
        <path d="M16,9 L16,16 L2,16 L2,9 L0,9 L0,16 C0,17.1 0.9,18 2,18 L16,18 C17.1,18 18,17.1 18,16 L18,9 L16,9 Z M10,9.67 L12.59,7.09 L14,8.5 L9,13.5 L4,8.5 L5.41,7.09 L8,9.67 L8,-5.68434189e-14 L10,-5.68434189e-14 L10,9.67 Z" id="path-1"></path>
    </defs>
    <g id="Profile" stroke="none" stroke-width="1" fill="none" fill-rule="evenodd">
        <g transform="translate(-743.000000, -196.000000)" id="Group-Copy-2">
            <g transform="translate(743.000000, 192.000000)">
                <g id="icon/content/remove_circle_outline_24px-copy-7" transform="translate(9.000000, 13.000000) rotate(90.000000) translate(-9.000000, -13.000000) translate(0.000000, 4.000000)">
                    <mask id="mask-2" fill="white">
                        <use xlink:href="#path-1"></use>
                    </mask>
                    <use id="icon/content/save_alt_24px" fill="#A1C6D7" xlink:href="#path-1"></use>
                </g>
            </g>
        </g>
    </g>
</svg>
