<svg width="11px" height="7px" viewBox="0 0 11 7" xmlns="http://www.w3.org/2000/svg">
    <g id="Forecast" stroke="none" stroke-width="1" fill="none" fill-rule="evenodd">
        <g id="Surf-Forecast-16" transform="translate(-408.000000, -608.000000)" fill="#0A769D">
            <g id="sunrise/sunset" transform="translate(51.000000, 608.000000)">
                <g id="Group-21" transform="translate(343.000000, 0.000000)">
                    <path d="M19.3111539,3.26666667 C19.6839019,3.26666667 20.0382425,3.34815825 20.3787777,3.51114143 C20.7193129,3.6741246 21.0138299,3.89313324 21.2577267,4.16307412 C21.5016235,4.43301501 21.6995021,4.75898136 21.8467606,5.13587995 C21.9633453,5.43427103 22.0337799,5.74543166 22.0580643,6.06683441 L24.5333333,6.06666667 C24.7910662,6.06666667 25,6.27560045 25,6.53333333 C25,6.79106622 24.7910662,7 24.5333333,7 L14.4666667,7 C14.2089338,7 14,6.79106622 14,6.53333333 C14,6.27560045 14.2089338,6.06666667 14.4666667,6.06666667 L16.563401,6.0662742 C16.5949856,5.60962271 16.7123306,5.18506594 16.9182038,4.7895407 C17.1621006,4.3260573 17.498034,3.95425193 17.9214021,3.67921783 C18.3447702,3.40418372 18.8095547,3.26666667 19.3111539,3.26666667 Z M19.3111539,4.24456571 C18.8141565,4.24456571 18.3815848,4.43810823 18.0272441,4.81500682 C17.7650845,5.09400084 17.5912969,5.5984968 17.5040884,6.06656402 L21.1174226,6.06628054 C21.0463403,5.61140168 20.879984,5.14425477 20.6180727,4.85065939 C20.2591302,4.44829468 19.8219567,4.24456571 19.3111539,4.24456571 Z M15.2741238,2.33333333 C15.3891694,2.33333333 15.4996133,2.38426558 15.5962517,2.48103683 L15.5962517,2.48103683 L16.3555531,3.32141883 C16.4429878,3.42328331 16.4844043,3.54042747 16.4844043,3.67794452 C16.4844043,3.8205548 16.4429878,3.93769895 16.3555531,4.03447021 C16.1392672,4.21782628 15.9229814,4.21782628 15.7066955,4.03447021 L15.7066955,4.03447021 L14.9658013,3.17371533 C14.8875703,3.09222374 14.8461538,2.97507958 14.8461538,2.8324693 C14.8461538,2.68985903 14.8829685,2.57271487 14.9611995,2.47594361 C15.0394306,2.37917235 15.1452726,2.33333333 15.2741238,2.33333333 Z M23.6534117,2.33333333 C23.7822628,2.33333333 23.8881048,2.38426558 23.9755396,2.47594361 C24.0629743,2.56762165 24.1089925,2.6847658 24.1089925,2.82737608 C24.1089925,2.96998636 24.0721779,3.08203729 23.989345,3.1686221 L23.989345,3.1686221 L23.2116363,4.02937699 C23.1288034,4.12105503 23.0229614,4.16689404 22.898712,4.16689404 C22.7744627,4.16689404 22.6686207,4.12105503 22.5857878,4.02937699 C22.5029549,3.92751251 22.4615385,3.80527513 22.4615385,3.66266485 C22.4615385,3.52005457 22.5029549,3.40291041 22.5857878,3.31123238 L22.5857878,3.31123238 L23.3404874,2.48103683 C23.4279221,2.38426558 23.5337642,2.33333333 23.6534117,2.33333333 Z M19.5279021,4.24105195e-14 C19.6567533,4.24105195e-14 19.7625953,0.0458390177 19.85003,0.137517053 C19.9374647,0.229195089 19.983483,0.341246021 19.983483,0.47366985 L19.983483,0.47366985 L19.983483,1.66548431 C19.983483,1.80809459 19.9374647,1.92523874 19.85003,2.02201 C19.7625953,2.11878126 19.6567533,2.16971351 19.5279021,2.16971351 C19.4036528,2.16971351 19.2978108,2.11878126 19.2103761,2.02201 C19.1229413,1.92523874 19.0769231,1.80300136 19.0769231,1.66548431 L19.0769231,1.66548431 L19.0769231,0.47366985 C19.0769231,0.341246021 19.1229413,0.229195089 19.2103761,0.137517053 C19.2978108,0.0458390177 19.4036528,4.24105195e-14 19.5279021,4.24105195e-14 Z" id="sunrise"></path>
                </g>
            </g>
        </g>
    </g>
</svg>
