<svg width="11px" height="7px" viewBox="0 0 11 7" xmlns="http://www.w3.org/2000/svg">
    <g id="Forecast" stroke="none" stroke-width="1" fill="none" fill-rule="evenodd">
        <g id="Surf-Forecast-16" transform="translate(-335.000000, -608.000000)" fill="#0A769D">
            <g id="sunrise/sunset" transform="translate(51.000000, 608.000000)">
                <g id="Group-23" transform="translate(284.000000, 0.000000)">
                    <path d="M5.31115387,3.26666667 C5.68390186,3.26666667 6.03824254,3.34815825 6.37877774,3.51114143 C6.71931294,3.6741246 7.01382987,3.89313324 7.25772671,4.16307412 C7.50162354,4.43301501 7.6995021,4.75898136 7.84676057,5.13587995 C7.96334528,5.43427103 8.03377986,5.74543166 8.05806431,6.06683441 L10.5333333,6.06666667 C10.7910662,6.06666667 11,6.27560045 11,6.53333333 C11,6.79106622 10.7910662,7 10.5333333,7 L0.466666667,7 C0.208933783,7 3.15631751e-17,6.79106622 0,6.53333333 C-3.15631751e-17,6.27560045 0.208933783,6.06666667 0.466666667,6.06666667 L2.563401,6.0662742 C2.59498559,5.60962271 2.71233064,5.18506594 2.9182038,4.7895407 C3.16210064,4.3260573 3.49803401,3.95425193 3.9214021,3.67921783 C4.34477019,3.40418372 4.80955472,3.26666667 5.31115387,3.26666667 Z M5.31115387,4.24456571 C4.81415655,4.24456571 4.3815848,4.43810823 4.02724412,4.81500682 C3.76508454,5.09400084 3.59129692,5.5984968 3.50408836,6.06656402 L7.11742264,6.06628054 C7.0463403,5.61140168 6.87998404,5.14425477 6.61807275,4.85065939 C6.25913024,4.44829468 5.82195667,4.24456571 5.31115387,4.24456571 Z M1.27412376,2.33333333 C1.38916944,2.33333333 1.49961329,2.38426558 1.59625165,2.48103683 L1.59625165,2.48103683 L2.35555312,3.32141883 C2.44298783,3.42328331 2.48440427,3.54042747 2.48440427,3.67794452 C2.48440427,3.8205548 2.44298783,3.93769895 2.35555312,4.03447021 C2.13926725,4.21782628 1.92298137,4.21782628 1.7066955,4.03447021 L1.7066955,4.03447021 L0.965801349,3.17371533 C0.88757029,3.09222374 0.846153846,2.97507958 0.846153846,2.8324693 C0.846153846,2.68985903 0.882968463,2.57271487 0.961199522,2.47594361 C1.03943058,2.37917235 1.1452726,2.33333333 1.27412376,2.33333333 Z M9.65341167,2.33333333 C9.78226282,2.33333333 9.88810485,2.38426558 9.97553956,2.47594361 C10.0629743,2.56762165 10.1089925,2.6847658 10.1089925,2.82737608 C10.1089925,2.96998636 10.0721779,3.08203729 9.98934504,3.1686221 L9.98934504,3.1686221 L9.21163627,4.02937699 C9.12880338,4.12105503 9.02296136,4.16689404 8.89871203,4.16689404 C8.7744627,4.16689404 8.66862068,4.12105503 8.58578779,4.02937699 C8.5029549,3.92751251 8.46153846,3.80527513 8.46153846,3.66266485 C8.46153846,3.52005457 8.5029549,3.40291041 8.58578779,3.31123238 L8.58578779,3.31123238 L9.34048743,2.48103683 C9.42792214,2.38426558 9.53376416,2.33333333 9.65341167,2.33333333 Z M5.52790213,4.24105195e-14 C5.65675328,4.24105195e-14 5.76259531,0.0458390177 5.85003002,0.137517053 C5.93746473,0.229195089 5.983483,0.341246021 5.983483,0.47366985 L5.983483,0.47366985 L5.983483,1.66548431 C5.983483,1.80809459 5.93746473,1.92523874 5.85003002,2.02201 C5.76259531,2.11878126 5.65675328,2.16971351 5.52790213,2.16971351 C5.4036528,2.16971351 5.29781078,2.11878126 5.21037606,2.02201 C5.12294135,1.92523874 5.07692308,1.80300136 5.07692308,1.66548431 L5.07692308,1.66548431 L5.07692308,0.47366985 C5.07692308,0.341246021 5.12294135,0.229195089 5.21037606,0.137517053 C5.29781078,0.0458390177 5.4036528,4.24105195e-14 5.52790213,4.24105195e-14 Z" id="sunset" transform="translate(5.500000, 3.500000) scale(1, -1) translate(-5.500000, -3.500000) "></path>
                </g>
            </g>
        </g>
    </g>
</svg>
