<svg viewBox="0 0 23 23" version="1.1" xmlns="http://www.w3.org/2000/svg">
    <g id="Symbols" stroke="none" stroke-width="1" fill="none" fill-rule="evenodd">
        <g id="footer/desktop" transform="translate(-980.000000, -291.000000)" fill="#005384">
            <g id="Footer">
                <path d="M991.5,291 C997.851275,291 1003,296.148725 1003,302.5 C1003,308.851275 997.851275,314 991.5,314 C985.148725,314 980,308.851275 980,302.5 C980,296.148725 985.148725,291 991.5,291 Z M993.988535,297.459124 C992.522737,297.459124 991.334029,298.611955 991.334029,300.033821 C991.334029,300.235909 991.357721,300.432003 991.402529,300.620353 C989.196878,300.513438 987.241279,299.488505 985.931794,297.929998 C985.703632,298.310945 985.572555,298.752842 985.572555,299.224966 C985.572555,300.117754 986.040982,300.906375 986.753022,301.367757 C986.318073,301.354767 985.908875,301.23836 985.550923,301.045764 L985.550923,301.078238 C985.550923,302.325493 986.466146,303.366163 987.679834,303.602724 C987.457595,303.661428 987.22248,303.693652 986.980412,303.693652 C986.809934,303.693652 986.643062,303.676915 986.48134,303.646689 C986.818947,304.669873 987.799065,305.41378 988.960476,305.435263 C988.052721,306.125712 986.908306,306.537384 985.663717,306.537384 C985.449976,306.537384 985.23881,306.524894 985.03125,306.501413 C986.205794,307.231331 987.601033,307.657741 989.100566,307.657741 C993.982612,307.657741 996.652313,303.735119 996.652313,300.332333 C996.652313,300.220921 996.649222,300.11001 996.644845,299.998599 C997.162458,299.636388 997.612086,299.182749 997.96875,298.666161 C997.492597,298.871248 996.980907,299.009637 996.444237,299.071588 C996.992238,298.752842 997.413796,298.248744 997.611314,297.647224 C997.099108,297.942239 996.531279,298.156817 995.926366,298.272475 C995.441973,297.771625 994.751822,297.459124 993.988535,297.459124 Z" id="TW-logo"></path>
            </g>
        </g>
    </g>
</svg>
