<svg xmlns="http://www.w3.org/2000/svg" viewBox="0 0 24 24"><defs><style>.cls-1,.cls-2{fill:none;}.cls-1{clip-rule:evenodd;}.cls-2{stroke:#005384;stroke-linecap:round;stroke-linejoin:round;stroke-width:1.91px;}.cls-3{clip-path:url(#clip-path);}</style><clipPath id="clip-path"><path class="cls-1" d="M60.56,5a7,7,0,0,1-7-7,7,7,0,0,1,7-7,7,7,0,0,1,7,7A7,7,0,0,1,60.56,5ZM69.5-3a9,9,0,0,0-7.94-7.94V-13h-2v2.06A9,9,0,0,0,51.62-3H49.56v2h2.06a9,9,0,0,0,7.94,7.94V9h2V6.94A9,9,0,0,0,69.5-1h2.06V-3ZM60.56-6a4,4,0,0,0-4,4,4,4,0,0,0,4,4,4,4,0,0,0,4-4A4,4,0,0,0,60.56-6Z"/></clipPath></defs><g id="Layer_2" data-name="Layer 2"><path class="cls-2" d="M1.5,18.94c.52.19,3.37.24,5.79-8.26s12.36-6.25,12.6-1c0,0-5-1.56-5,2.73s7.62,6.49,7.62,6.49"/></g></svg>
