<svg viewBox="0 0 117 100" version="1.1" xmlns="http://www.w3.org/2000/svg">
    <g stroke="none" stroke-width="1" fill="none" fill-rule="evenodd">
        <g transform="translate(-453.000000, -607.000000)" fill="#A56600">
            <path d="M491.023485,644.053425 L506.396441,696.694261 L459.528304,644.053425 L491.023485,644.053425 Z M477.365474,611.233228 L507.844392,611.233228 L492.604933,637.70302 L477.365474,611.233228 Z M564.530321,639.819916 L534.051404,639.819916 L549.290863,613.350123 L564.530321,639.819916 Z M531.97419,644.053425 L563.465718,644.053425 L516.510176,696.686369 L531.97419,644.053425 Z M530.395553,637.703302 L515.156094,611.233228 L545.635012,611.233228 L530.395553,637.703302 Z M515.953142,639.819916 L496.260503,639.819916 L511.499962,613.349842 L526.739421,639.819916 L526.556459,639.819916 C525.390679,639.819916 524.445801,640.767742 524.445801,641.93653 C524.445801,643.1056 525.39096,644.053144 526.556459,644.053144 L527.572723,644.053144 L511.448811,698.932347 L495.422423,644.053425 L515.953142,644.053425 C517.118922,644.053425 518.0638,643.1056 518.0638,641.936812 C518.064081,640.767742 517.118922,639.819916 515.953142,639.819916 L515.953142,639.819916 Z M551.748332,609.151562 C550.984167,607.82438 549.560386,607 548.032056,607 L474.96843,607 C473.4401,607 472.016319,607.82438 471.252435,609.151562 L466.038181,618.207907 C465.455291,619.220274 465.801259,620.514763 466.810778,621.099298 C467.820015,621.683833 469.111142,621.336888 469.694032,620.324521 L473.709623,613.349842 L488.949082,639.819634 L458.470164,639.819634 L464.913434,628.627792 C465.496324,627.615425 465.150356,626.320654 464.140837,625.736401 C463.131318,625.151303 461.840191,625.498811 461.257582,626.511178 L453.45967,640.055815 C452.719674,641.340721 452.88493,642.94777 453.870278,644.054835 L508.892976,705.854605 C509.540507,706.582032 510.469646,707 511.442347,707 C512.415892,707 513.34475,706.583441 513.992843,705.857423 L569.127397,644.056526 C570.114994,642.949461 570.280811,641.341567 569.540254,640.05497 L551.748332,609.151562 Z" id="Fill-1"></path>
        </g>
    </g>
</svg>
