<svg width="765px" height="764px" viewBox="0 0 765 764" version="1.1" xmlns="http://www.w3.org/2000/svg">
    <g stroke="none" stroke-width="1" fill="none" fill-rule="evenodd" opacity="0.221354167">
        <g transform="translate(108.000000, -745.000000)" fill="#A1C6D7" id="Group-14">
            <g transform="translate(-108.000000, 745.000000)">
                <path d="M753.903203,383.033666 C750.2944,386.049783 745.473881,387.630281 738.308957,388.143943 C737.426513,388.209797 736.544068,388.249309 735.661623,388.249309 C732.263553,388.249309 729.089386,387.722476 725.941561,386.64247 C723.136177,385.707342 717.881022,384.442943 704.486302,384.442943 C666.962648,384.442943 666.119716,386.97174 664.275801,392.516653 C664.183606,392.78007 664.104581,393.069828 664.025556,393.359586 C663.327503,393.333244 662.603108,393.306902 661.760176,393.306902 L661.733834,393.306902 C657.690394,393.320073 654.489885,393.649344 651.947918,394.413251 C652.250847,386.418566 652.224505,378.318514 651.842551,370.126266 C653.238658,370.481878 654.72696,370.653099 656.202091,370.653099 L656.307458,370.653099 C657.084536,370.600416 657.887956,370.587245 658.691376,370.587245 L660.996268,370.613587 L663.60409,370.639928 L664.24946,370.639928 C667.436797,374.617515 677.617838,378.239489 711.572201,378.239489 C722.68837,378.239489 727.245472,377.040945 729.708415,376.145329 C730.129881,375.98728 731.828916,375.460447 735.266499,375.460447 C742.87923,375.460447 751.229528,377.976073 754.891014,381.887805 C754.891014,381.900976 754.746135,382.335613 753.903203,383.033666 M575.583528,556.058674 C549.413117,585.482276 517.631938,607.253635 481.148778,622.176169 C479.72633,622.755685 460.707672,629.867925 452.686645,631.790865 C427.398679,637.84944 402.993157,640.891898 379.509592,640.891898 C306.358881,640.891898 242.0853,611.323417 187.689831,551.093276 C149.125682,508.38032 129.224579,456.948284 125.088943,399.497186 C117.028404,287.584764 184.094198,181.401646 288.604622,140.78285 C289.789995,140.321872 293.925631,138.780886 293.925631,138.780886 C322.914597,127.980817 353.15479,122.752004 383.210592,122.752004 C455.34715,122.752004 526.351018,152.847318 575.846944,208.033036 C611.750588,248.045975 634.06195,294.617979 640.581504,347.933442 C650.248883,426.839799 628.503866,496.539757 575.583528,556.058674 M597.275861,565.067512 C597.183666,565.989469 597.210007,566.924597 597.368057,567.833383 C598.71148,575.274894 629.491677,607.688272 640.120525,612.890744 C649.23473,617.34248 654.555739,624.467891 656.399654,634.543565 C656.254775,634.62259 655.675259,634.820152 654.542569,634.820152 C652.606459,634.806981 650.709861,634.385515 648.931801,633.529412 C640.120525,629.30158 634.944395,624.836674 631.599007,618.593707 C626.646781,609.347794 592.73193,580.767124 584.855782,580.753953 C583.881142,580.753953 582.774793,581.03054 581.707957,581.478348 C580.733317,580.503708 579.692822,579.594921 578.665499,578.686135 C577.822566,577.948569 576.966463,577.237345 576.228898,576.407584 C574.97767,575.024648 573.647418,573.957812 572.251311,573.193905 C575.794261,569.650955 579.218673,566.01581 582.56406,562.248957 C584.421145,560.181139 586.225547,558.086979 587.990436,555.979649 C588.793856,557.204535 589.794838,558.271371 590.888016,559.166986 C592.284122,560.312847 593.574862,561.577245 594.891944,562.815302 C595.655851,563.552868 596.432929,564.290433 597.275861,565.067512 M393.655049,657.157856 L393.628707,659.989581 C393.589195,661.4252 393.562853,662.847648 393.589195,664.283267 C392.785775,664.902296 392.074551,665.653032 391.521376,666.495964 C387.398911,672.738931 383.908645,715.491399 387.570132,728.043187 C390.401857,737.78959 388.742334,746.587695 382.565222,754.56921 C382.552051,754.56921 382.05156,754.437502 381.313994,753.581399 C378.192511,749.946253 376.598842,745.086222 376.111522,737.815932 C375.821764,733.298342 376.309084,729.333927 377.652507,725.35634 C381.050578,715.214812 379.233005,672.475515 375.136882,666.733039 C374.109558,665.29742 372.608085,664.191072 370.935391,663.51936 C371.040758,661.873008 371.014416,660.213485 370.961733,658.553962 C370.92222,657.408101 370.882708,656.24907 370.961733,655.116379 C371.106612,653.298807 370.974904,651.612942 370.579779,650.085128 C373.543213,650.177323 376.532988,650.230007 379.509592,650.230007 C384.448648,650.230007 389.440388,650.098299 394.48481,649.834882 C393.918465,651.836846 393.655049,654.260276 393.655049,657.157856 M206.049948,589.367667 C204.811891,590.895481 203.428956,592.31793 202.072362,593.740378 C201.097721,594.74136 200.136252,595.742342 199.174782,596.809178 C198.792828,596.769665 198.384533,596.743324 197.989409,596.743324 C189.283499,596.743324 155.342307,630.144513 151.03545,640.957752 C149.375927,645.106559 137.31146,655.643212 130.568002,655.643212 C129.646045,655.6037 129.303604,655.432479 129.3958,654.615888 C129.303604,652.06075 129.948974,649.492441 131.318739,647.016328 C135.889012,638.705543 140.116844,634.056245 145.925174,630.974274 C154.854987,626.23278 165.141394,613.667822 173.096567,603.236536 L174.255598,601.721892 C174.519015,601.458476 174.742919,601.168718 174.966823,600.865789 C175.230239,600.510177 175.467314,600.128223 175.678047,599.74627 C176.112684,599.11407 176.889762,598.047234 177.745865,596.875032 C181.934184,591.132556 185.635183,586.02228 183.00102,581.01737 L184.002002,580.121754 C187.083973,577.434908 190.74546,574.221229 192.576203,569.822176 C198.252825,575.498798 204.021642,580.872491 209.895826,585.969596 C208.618257,586.733504 207.314346,587.826681 206.049948,589.367667 M169.909229,201.31592 C169.079468,200.5125 168.236536,199.69591 167.380433,198.905661 C167.525312,197.693946 167.472628,196.455889 167.143358,195.257345 C165.497006,188.922182 136.455357,155.942459 123.574299,150.937549 C117.976702,148.777536 108.743961,136.159894 108.585911,130.496443 C108.57274,129.851073 108.625423,129.442778 108.599082,129.284728 C108.836156,129.218874 109.310306,129.15302 110.074213,129.139849 C112.550326,129.139849 114.973756,129.824732 117.515724,131.234009 C125.484067,135.698916 130.19922,140.018943 133.228507,145.708736 C137.482681,153.69025 171.015578,183.680198 178.852213,183.680198 C179.708316,183.680198 180.57759,183.56166 181.407351,183.324586 C182.039551,183.140194 182.632237,182.929461 183.172241,182.666045 C183.290778,182.771411 183.396145,182.876778 183.48834,182.968974 L185.345425,184.641667 C187.004948,186.129969 188.677642,187.605101 190.192286,189.225111 C191.311805,190.436826 192.497178,191.398296 193.748406,192.10952 C188.269347,197.628092 183.040533,203.357396 178.061964,209.310605 C177.060982,207.690595 175.664876,206.215463 173.847303,204.885211 C172.438026,203.831546 171.186798,202.567147 169.909229,201.31592 M370.948562,103.404075 C370.974904,102.205531 370.988075,101.020157 370.974904,99.8216132 C371.817836,99.189414 372.568572,98.4518483 373.161259,97.5825745 C377.665678,91.0761915 380.418379,47.3754245 377.04665,36.0221813 C374.175412,26.4074857 375.75591,17.6884057 382.341318,9.4829874 C382.578392,9.61469556 382.920834,9.9044535 383.3423,10.4181153 C386.345246,13.9742356 387.899402,18.6498752 388.426235,25.5513827 C388.795018,30.5167803 388.373551,34.4416834 387.043299,38.3007324 C383.236933,49.3247053 385.43646,91.682049 389.071605,96.9240337 C390.164782,98.5045316 391.876988,99.7162467 393.747244,100.387958 L393.589195,102.258214 C393.259924,105.511406 392.8648,109.660213 394.116027,113.624628 C390.480882,113.479749 386.858908,113.400724 383.210592,113.400724 C378.969589,113.400724 374.741757,113.506091 370.540267,113.703653 C370.988075,111.978276 371.119783,110.160704 370.988075,108.408985 C370.856366,106.749462 370.90905,105.076769 370.948562,103.404075 M559.673182,173.341107 C560.660993,172.155734 561.714659,171.036214 562.781495,169.916695 C563.532231,169.126446 564.296138,168.323026 565.060046,167.480094 C565.481512,167.638144 565.916149,167.769852 566.311273,167.90156 C567.457134,168.37571 568.68202,168.612784 569.867394,168.612784 C571.513746,168.612784 573.160098,168.178147 574.622058,167.308873 C576.492314,166.215696 577.901591,164.50349 578.625986,162.514697 C580.206484,160.433708 585.501152,155.231235 589.452397,151.372186 C601.951501,139.136498 611.013022,129.877415 613.805235,122.225171 C615.66232,117.167578 628.714599,108.343131 634.404391,108.343131 L635.19464,109.186063 C635.326348,111.780714 634.680978,114.362194 633.205847,117.04904 C628.701428,125.214946 624.565792,129.772048 618.862828,132.788165 C612.211566,136.331115 605.665671,144.417996 596.459271,156.350755 C593.3773,160.341512 588.886052,166.176183 586.791892,168.125464 C585.027003,168.744492 583.472846,169.890353 582.340156,171.45768 C579.864043,174.882093 579.65331,179.228462 581.576249,182.91629 C580.62795,183.87776 579.719164,184.891913 578.836719,185.919236 C578.072812,186.814852 577.348417,187.697296 576.492314,188.474375 C575.267428,189.580723 574.279617,190.739755 573.555222,192.004153 C568.089333,186.498752 562.38637,181.269938 556.485845,176.29137 C557.605364,175.514292 558.6722,174.539651 559.673182,173.341107 M111.760077,393.227877 C111.562515,393.227877 110.732754,393.254219 110.535192,393.26739 C109.336647,393.346415 108.124932,393.372756 106.913217,393.372756 L104.028808,393.333244 L100.894154,393.306902 C100.683421,393.306902 100.485859,393.320073 100.275126,393.320073 C96.9165679,389.316145 86.5511359,385.443925 53.9665375,385.443925 C45.3791656,385.443925 39.4522985,386.16832 35.2903207,387.735647 C35.0005627,387.841014 33.3673816,388.394188 29.7322364,388.394188 C22.0009675,388.394188 13.3213999,385.891733 10.3579663,382.796591 C9.97601264,382.401467 9.79162122,382.098538 9.71259632,382.098538 L9.69942551,382.098538 C9.76527958,381.953659 10.0155251,381.558535 10.5818702,381.044873 C13.8350617,378.120952 18.1682601,376.553625 24.6614723,375.934596 C26.1366037,375.789717 27.5985642,375.697522 29.0605248,375.697522 C32.550791,375.697522 35.553737,376.171671 38.4908289,377.212165 C42.7713441,378.700468 49.1065065,379.398521 58.4446149,379.398521 C95.4414366,379.398521 97.9570624,375.473618 99.6429268,372.878967 C100.130247,372.11506 100.512201,371.351152 100.801959,370.600416 C101.118058,370.613587 101.420987,370.613587 101.737087,370.613587 L104.134175,370.613587 L105.293207,370.613587 L106.465409,370.613587 C110.074213,370.613587 112.998134,370.337 115.35571,369.665288 C115.000098,377.633631 115.000098,385.654658 115.395223,393.715198 C113.880579,393.306902 112.563497,393.227877 111.760077,393.227877 M761.054956,374.736052 C755.562726,368.967235 744.235824,366.122338 735.266499,366.122338 C731.842087,366.122338 728.773287,366.530634 726.494735,367.373566 C723.452277,368.479914 717.960047,368.88821 711.572201,368.88821 C694.858436,368.88821 672.112437,366.016972 672.046583,365.121356 C671.862191,362.10524 670.426572,361.156941 667.897776,361.156941 C667.608018,361.156941 667.305089,361.170112 666.975819,361.196453 C665.856299,361.275478 664.723609,361.30182 663.60409,361.30182 C661.970909,361.30182 660.324557,361.249137 658.691376,361.249137 C657.703564,361.249137 656.715753,361.262307 655.754284,361.328161 C655.556721,361.341332 655.398672,361.341332 655.227451,361.341332 C652.9489,361.341332 652.290359,360.287667 652.224505,357.890579 C652.14548,354.439825 651.697672,350.989071 651.236694,347.57783 C643.650304,291.417471 620.956988,242.250816 582.840647,200.262255 C581.194295,198.431511 580.614779,197.311992 582.72211,195.428565 C585.079686,193.321235 586.870917,190.594876 589.241664,188.500716 C592.547538,185.603137 594.220232,182.850436 590.3085,179.188949 C589.83435,178.741142 589.281176,177.806014 589.913375,176.93674 L589.926546,176.93674 C595.076335,176.93674 612.935961,146.512155 623.24871,141.046267 C631.79657,136.515506 636.999042,129.534974 641.384924,121.540288 C643.558108,117.615385 644.769823,113.295358 644.519578,108.685572 C644.216649,102.692851 640.541991,99.1103891 634.588783,99.0050226 L634.351708,99.0050226 C624.842379,99.0050226 608.273493,110.147533 605.033472,119.024663 C601.003202,130.048636 570.407397,154.585865 569.867394,159.261505 C568.68202,158.774185 567.417622,158.576623 566.614202,157.865399 C565.521024,156.890758 564.585896,156.469292 563.729793,156.469292 C562.38637,156.469292 561.240509,157.483445 560.015623,158.998089 C557.69756,161.92201 554.905347,164.463977 552.495088,167.348386 C551.599472,168.415222 550.848736,169.02108 549.966291,169.02108 C549.30775,169.02108 548.557014,168.691809 547.608715,167.967414 C508.148951,137.753563 463.671106,119.893937 414.333229,114.032923 C413.648347,113.953899 412.910781,113.927557 412.160045,113.927557 C411.185404,113.927557 410.171252,113.967069 409.196611,113.967069 C406.852206,113.967069 404.718534,113.756336 403.704381,112.268034 C401.860467,109.594359 402.821936,104.787011 403.072182,100.941133 C403.427794,96.0020766 403.243403,91.826928 396.776532,91.6161949 C396.276041,91.6030241 392.06138,52.419847 395.880916,41.3431909 C397.790685,35.8114482 398.159468,30.4377554 397.738002,24.8665003 C397.184827,17.4249893 395.44628,10.299578 390.507224,4.4122233 C388.083793,1.51464382 385.107189,0 382.183268,0 C379.443738,0 376.73055,1.3302524 374.544195,4.09612372 C366.378289,14.3430184 364.429008,26.4206566 368.090495,38.6958569 C371.593932,50.4573954 366.747072,92.2615649 365.364136,92.3669314 C362.348019,92.5644937 361.254842,93.8947461 361.505087,97.042571 C361.847528,101.05967 361.347037,105.129452 361.663137,109.13338 C361.926553,112.570963 360.648984,113.466578 357.382622,113.769507 C323.559967,116.798795 291.581226,126.281782 261.354204,141.638953 C239.635528,152.662926 219.773938,166.386916 201.88797,182.903119 C200.900159,183.811906 200.123081,184.286055 199.372344,184.286055 C198.647949,184.286055 197.923555,183.825077 197.04111,182.876778 C194.7889,180.453348 192.233762,178.293334 189.797161,176.067466 C187.979589,174.421114 186.372749,172.129392 184.225906,171.404997 C184.041515,171.339143 183.870294,171.312802 183.699073,171.312802 C182.052721,171.312802 180.722469,173.802086 178.839042,174.342089 C178.259527,174.342089 146.952497,151.582919 141.473438,141.309683 C136.929506,132.788165 130.027999,127.53301 122.059655,123.081274 C118.384998,121.013456 114.354728,119.801741 110.074213,119.801741 L109.679088,119.801741 C102.803923,119.920278 99.0502401,123.858352 99.2478023,130.746689 C99.4980478,140.374555 111.15422,156.153192 120.1894,159.656629 C131.648009,164.095194 158.793061,196.890526 158.108178,197.733458 C156.014019,200.249084 156.409143,201.987632 158.990623,204.002766 C162.270156,206.584246 164.943832,209.916463 168.289219,212.392576 C171.502898,214.763323 170.870699,216.383333 168.763368,219.175546 C138.747079,258.925068 120.887453,303.560963 115.579614,353.135914 C114.723511,361.262307 114.723511,361.275478 106.465409,361.275478 L104.134175,361.275478 L101.697574,361.275478 L101.671232,361.275478 C100.196101,361.275478 98.6551156,361.051574 97.1799843,361.051574 C96.1921731,361.051574 95.2570451,361.14377 94.4141129,361.47304 C91.977512,362.408168 93.0838605,365.806239 91.7931206,367.821374 C91.6350708,368.045278 73.5120282,370.047242 58.4446149,370.047242 C51.4509117,370.047242 45.1157493,369.612605 41.559629,368.387719 C37.3449679,366.912587 33.2093318,366.359413 29.0605248,366.359413 C27.3088063,366.359413 25.5439169,366.46478 23.7790276,366.636 C16.6931287,367.307712 9.83113366,369.138455 4.33890346,374.090682 C-0.745031448,378.660955 -0.92942287,384.535139 3.60133778,389.263462 C9.04088471,394.940083 20.6707151,397.732296 29.7322364,397.732296 C33.2356734,397.732296 36.3703276,397.324001 38.5961954,396.481069 C41.8625578,395.243012 47.5128378,394.782034 53.9665375,394.782034 C70.5881071,394.782034 92.5438571,397.864005 92.5701987,398.878157 C92.6755652,402.078666 94.4009421,402.737206 96.9165679,402.737206 C97.1799843,402.737206 97.4434006,402.724036 97.7199877,402.724036 C98.773653,402.671352 99.840489,402.658182 100.894154,402.658182 C102.896118,402.658182 104.911253,402.710865 106.913217,402.710865 C108.309324,402.710865 109.718601,402.684523 111.114707,402.592327 C111.351782,402.579157 111.562515,402.565986 111.760077,402.565986 C114.288874,402.565986 114.855219,403.711847 115.118635,406.385522 C120.426474,462.032219 140.85441,511.44912 176.441954,554.570371 C179.273679,557.994783 184.792251,561.221633 184.357614,564.738241 C183.883465,568.491924 179.023434,571.903165 175.691217,575.037819 C172.293147,578.225157 170.093621,581.096394 174.453161,585.06081 C174.795602,585.37691 167.34092,595.057459 167.433116,595.347217 C167.064333,595.347217 151.812528,617.263455 141.539292,622.716172 C132.859724,627.339129 127.578227,634.411857 123.126491,642.511909 C121.032332,646.318274 119.899642,650.519765 120.057691,654.95833 C120.281595,661.161784 123.995765,664.704733 130.133365,664.98132 C130.330928,664.994491 130.52849,664.994491 130.739223,664.994491 C141.684171,664.994491 156.883292,651.520747 159.715018,644.421677 C164.311633,632.870871 196.382569,606.081432 197.976238,606.081432 C197.989409,606.081432 198.01575,606.094603 198.01575,606.094603 C199.082586,607.029731 200.004543,607.451197 200.860646,607.451197 C202.059191,607.451197 203.126027,606.621436 204.298229,605.185817 C207.090442,601.721892 210.475342,598.732117 213.293897,595.268192 C214.215854,594.135502 214.96659,593.661353 215.756839,593.661353 C216.560259,593.661353 217.39002,594.161844 218.430515,594.991605 C235.30233,608.188763 253.54391,619.12054 273.07623,627.905474 C300.115915,640.048966 328.340973,647.622185 357.869942,650.216836 C360.833376,650.493423 361.860699,651.454893 361.649966,654.405155 C361.399721,657.55298 361.87387,660.77983 361.518258,663.901314 C360.991425,668.655978 361.755333,672.054049 367.497808,672.133073 C368.103666,672.133073 372.502718,711.329421 368.788548,722.392907 C366.970976,727.806112 366.444143,732.995413 366.786584,738.42179 C367.287075,746.139888 368.999281,753.594569 374.214924,759.666315 C376.612013,762.458528 379.562276,763.907318 382.473026,763.907318 C385.173043,763.907318 387.820377,762.64292 389.914537,760.035098 C398.146297,749.801374 400.121919,737.710565 396.539457,725.435365 C392.983337,713.212848 398.054101,671.711607 399.450208,671.540387 C402.202908,671.211116 403.335598,670.038914 403.059011,667.101822 C402.769253,663.809118 402.993157,660.476901 402.993157,657.157856 C403.006328,650.849035 403.006328,650.888548 409.328319,650.309032 C445.363672,646.989986 479.304864,636.664066 511.20458,619.621031 C530.223238,609.43999 547.766765,597.112106 563.742964,582.611038 C564.849313,581.610056 565.744928,581.070053 566.614202,581.070053 C567.470305,581.070053 568.300067,581.570544 569.274707,582.663722 C571.316183,584.90276 573.871322,586.654479 575.860115,588.919859 C577.519638,590.790115 579.126477,592.252075 580.94405,592.252075 C582.129423,592.252075 583.406992,591.633047 584.82944,590.105232 C584.82944,590.105232 584.842611,590.092062 584.855782,590.092062 C586.12018,590.105232 617.822334,612.66684 623.354077,623.00593 C628.293133,632.212331 635.958547,637.665048 644.901531,641.945564 C647.891307,643.394353 651.131327,644.14509 654.516227,644.158261 L654.582081,644.158261 C661.773346,644.158261 666.264595,639.904087 665.210929,632.739163 C663.314332,619.752739 655.767454,610.138043 644.242991,604.487763 C633.350726,599.166754 605.705183,566.990451 606.574457,566.055323 C609.129596,563.368476 607.667635,561.695783 605.454938,559.825527 C602.478334,557.309901 599.831,554.425492 596.828054,551.96255 C594.878773,550.342539 595.15536,549.302045 596.577808,547.458131 C627.568738,507.287143 646.113246,462.04539 651.710843,411.548482 C652.698654,402.658182 652.804021,402.684523 661.865542,402.658182 L661.970909,402.658182 C663.472382,402.658182 665.05288,402.803061 666.567523,402.803061 C668.082167,402.803061 669.530957,402.658182 670.769014,402.078666 C672.257316,401.393783 672.389024,397.771809 673.139761,395.466916 C673.179273,395.36155 689.893038,393.781052 704.486302,393.781052 C712.099034,393.781052 719.132249,394.215689 722.938615,395.493258 C727.232301,396.955218 731.394279,397.574247 735.661623,397.574247 C736.767972,397.574247 737.87432,397.547905 738.99384,397.46888 C746.567059,396.915706 753.863691,395.229841 759.882754,390.224931 C765.256446,385.760025 765.651571,379.569741 761.054956,374.736052" id="Fill-1" opacity="0.8"></path>
                <path d="M461.598019,204.932626 C437.495426,194.738415 411.878189,189.575455 385.457533,189.575455 C359.050047,189.575455 333.43281,194.738415 309.317047,204.932626 C286.017873,214.784396 265.102618,228.877169 247.137625,246.855333 C229.172632,264.820326 215.053518,285.735581 205.201747,309.008413 C195.007536,333.124176 189.831405,358.741413 189.831405,385.148899 C189.831405,406.920258 193.413867,428.125271 200.354887,448.421498 C227.539451,448.368815 248.072753,448.250278 264.470419,448.144911 C277.140743,448.065886 287.348126,448.000032 296.238426,448.000032 C310.594616,448.000032 323.923481,441.651699 333.762081,430.100893 C344.232879,417.825693 349.027056,401.388515 346.590455,386.149881 C341.848962,356.620912 317.377586,337.075421 286.913489,338.761286 C259.452338,340.249588 236.943414,363.799007 235.679015,392.366506 C235.59999,394.276274 234.915108,398.72801 230.344835,398.72801 L230.331664,398.72801 C225.392608,398.714839 225.036996,393.591392 225.036996,392.037236 C225.089679,372.360037 229.054095,352.985767 236.772193,334.4676 C264.536273,267.981321 334.117693,228.837657 405.924981,239.242601 C446.543777,245.143127 480.392773,264.425201 506.510501,296.522479 C528.505764,323.562164 540.082911,356.120421 540.912672,393.301634 C541.650238,425.767695 556.164477,441.19072 571.429452,445.840018 C577.804127,426.33404 581.07049,405.9983 581.07049,385.148899 C581.07049,358.741413 575.90753,333.124176 565.713318,309.008413 C555.861548,285.735581 541.755604,264.820326 523.790611,246.855333 C505.812448,228.877169 484.897192,214.784396 461.598019,204.932626" id="Fill-4" opacity="0.8"></path>
                <path d="M530.21797,392.809045 C530.138945,383.589474 529.243329,374.620149 527.544294,366.164485 C518.127161,319.289552 487.689405,281.041502 444.028151,261.179912 C400.314213,241.305151 351.410974,243.531019 309.843879,267.291171 L308.921922,267.818003 C303.666767,270.807778 298.22722,273.916091 293.288164,278.683926 C291.813032,280.119545 291.444249,282.29273 291.971082,284.294694 C292.497915,286.270316 294.275975,287.890327 296.251597,288.403988 C297.226238,288.733259 299.030639,288.930821 300.00528,288.706917 C300.940408,288.496184 301.836023,288.232768 302.744809,287.956181 L303.495546,287.732277 C318.41808,283.491274 332.273778,281.97663 345.86606,283.122491 C377.765776,285.822508 404.278629,299.651865 424.64071,324.254949 C441.038376,344.077027 449.243794,367.639616 449.678431,396.299312 C450.099897,423.918512 461.202895,447.889397 482.671324,467.527084 C499.87241,483.266209 529.454062,491.313577 538.4629,492.880904 C541.663409,493.434078 544.969283,493.657982 548.130279,493.77652 C554.979103,483.555967 560.866458,472.690044 565.713318,461.257775 C566.332347,459.769473 566.885521,458.268 567.478208,456.753356 L566.964546,456.595307 C543.230736,450.181119 530.86334,428.712689 530.21797,392.809045" id="Fill-6" opacity="0.8"></path>
                <path d="M356.051052,491.886508 C402.781107,483.36499 446.020895,438.952999 437.499377,379.447253 C432.468126,344.347029 409.893347,315.107817 377.111187,301.238948 C343.762681,287.172517 306.44976,291.453032 277.197378,312.737071 L276.012005,313.580003 C273.878332,315.055134 271.230998,316.899048 269.294888,319.954678 C267.753903,322.41762 268.307077,325.631299 270.585628,327.435701 C274.128578,330.254256 277.658356,329.477178 279.554954,329.082053 C288.287205,327.554238 296.92726,327.646434 305.211703,329.35864 C340.443636,336.655272 363.018414,370.148657 356.591056,405.604493 C351.059313,436.239811 326.377204,458.485319 297.941413,458.485319 C270.585628,458.485319 220.167745,458.893614 204.323254,459.025322 C204.626183,459.776059 204.889599,460.513624 205.205699,461.264361 C210.013046,472.643946 215.874059,483.430844 222.683371,493.611884 C279.871054,493.796276 326.996233,493.914813 331.026502,493.927984 C340.114365,493.756763 348.491004,493.256272 356.051052,491.886508" id="Fill-8" opacity="0.8"></path>
                <path d="M524.339835,501.121884 C514.42221,499.343823 491.465478,487.951068 484.761533,482.840791 C477.636122,477.401244 463.556519,464.427991 456.035984,452.705965 C454.389632,450.137656 452.874988,447.477151 451.281319,444.711279 L448.805206,440.404423 C447.75154,438.639533 445.631039,437.638551 443.773954,437.599039 C441.719307,437.651722 439.83588,438.810754 438.874411,440.615156 C432.908031,451.876203 427.507997,459.884059 421.370396,466.588005 C398.703422,491.37548 369.977873,504.072146 336.02351,504.335563 C324.709779,504.427758 289.227601,504.401417 230.538446,504.256538 C235.675064,510.934141 241.10144,517.401012 247.133674,523.420075 C265.098667,541.398238 286.013922,555.504182 309.326266,565.342782 C333.428859,575.536993 359.046096,580.713124 385.453582,580.713124 C411.874238,580.713124 437.491475,575.536993 461.594068,565.342782 C484.893241,555.504182 505.821667,541.398238 523.78666,523.420075 C529.976944,517.242962 535.548199,510.578529 540.803354,503.690193 C537.010159,503.387264 533.401356,502.755065 527.355951,501.661887 L524.339835,501.121884 Z" id="Fill-10" opacity="0.8"></path>
                <path d="M570.359982,247.260994 C574.416593,247.063432 577.880518,250.303452 577.999055,254.386405 C578.117593,258.166429 575.114647,261.314254 571.321452,261.393279 C567.475573,261.485475 564.19604,258.377162 563.998478,254.439089 C563.787745,250.487844 566.487762,247.445385 570.359982,247.260994 M385.454899,590.452942 C272.041004,590.452942 180.095538,498.520648 180.095538,385.146265 C180.095538,271.745541 272.041004,179.826417 385.454899,179.826417 C498.868794,179.826417 590.82743,271.745541 590.82743,385.146265 C590.82743,498.520648 498.868794,590.452942 385.454899,590.452942 M597.070397,459.508691 C600.824079,459.561374 603.945562,462.748712 603.90605,466.489223 C603.853367,470.62486 600.402613,474.101955 596.47771,473.957076 C592.750369,473.825368 589.839619,470.598518 589.971327,466.739469 C590.116206,462.656516 593.25086,459.456008 597.070397,459.508691 M610.149017,350.151364 C614.152945,350.138236 617.037353,353.128012 617.076866,357.342673 C617.103207,361.372942 614.390019,364.310034 610.53097,364.428572 C606.434847,364.547109 603.207997,361.241234 603.26068,357.000231 C603.313363,353.154353 606.303139,350.177749 610.149017,350.151364 M533.573893,564.256189 C529.675332,564.163994 526.817265,561.174218 526.935802,557.288828 C527.041169,553.258558 530.570947,550.031708 534.627559,550.22927 C538.315387,550.400491 541.028575,553.258558 541.041746,556.985899 C541.041746,561.082023 537.696359,564.348385 533.573893,564.256189 M435.925465,615.082407 C431.97422,615.095538 428.865908,611.789664 429.050299,607.798906 C429.261032,603.900345 432.474711,601.108132 436.663031,601.213499 C440.574763,601.318865 443.419659,604.295469 443.314293,608.18086 C443.235268,612.079422 440.008418,615.082407 435.925465,615.082407 M326.146715,614.278948 C322.063762,614.252606 318.744716,611.183806 318.692033,607.403782 C318.63935,603.465708 321.918883,600.331054 325.922811,600.462762 C330.084789,600.607641 333.16676,603.650099 333.100906,607.53549 C333.048222,611.381368 330.018935,614.305289 326.146715,614.278948 M228.906582,562.425446 C225.16607,562.399104 221.675804,558.987863 221.60995,555.273693 C221.530925,551.414644 224.441675,548.385356 228.313895,548.293161 C232.172944,548.214136 235.650039,551.375131 235.860772,555.168326 C236.058335,559.119571 232.884168,562.451788 228.906582,562.425446 M166.872039,471.138521 C163.039332,471.046326 160.036386,467.753622 160.036386,463.670669 C160.036386,459.837961 163.065673,456.808674 166.88521,456.821802 C170.92865,456.835015 174.089646,460.285769 173.957938,464.50043 C173.852572,468.333138 170.744259,471.243888 166.872039,471.138521 M153.97781,367.405176 C150.000224,367.168101 147.221182,363.862226 147.537281,359.72659 C147.879723,355.551442 151.040719,352.680204 154.978792,353.022645 C158.995891,353.378257 161.524688,356.591936 161.155905,360.885622 C160.813464,364.823696 157.718322,367.642251 153.97781,367.405176 M192.502447,249.46052 C196.242958,249.500033 199.245904,252.555662 199.259075,256.348857 C199.285417,260.418639 195.94003,263.895734 192.028297,263.856222 C188.314127,263.816709 185.218986,260.708397 185.192644,256.994227 C185.153132,253.122007 188.735593,249.421008 192.502447,249.46052 M274.622483,175.743464 C278.376166,175.875172 281.418624,179.102022 281.286916,182.842534 C281.155208,186.872803 277.6386,189.967945 273.450281,189.757212 C269.512207,189.546479 266.864873,186.556704 267.075606,182.579117 C267.273168,178.838606 270.842459,175.611756 274.622483,175.743464 M381.108529,148.822316 C385.217824,148.875 388.273453,151.864775 388.22077,155.789678 C388.168087,159.609215 384.809529,162.717527 380.884626,162.59899 C376.775331,162.480452 373.706531,159.437994 373.772385,155.565774 C373.85141,151.667213 376.986064,148.769633 381.108529,148.822316 M487.739454,174.492236 C491.980457,174.439553 495.352186,177.61372 495.339054,181.670331 C495.325844,185.437184 492.19119,188.532326 488.424337,188.492814 C484.328213,188.453301 480.916972,185.002547 481.061851,181.038132 C481.180388,177.323962 484.012114,174.54492 487.739454,174.492236 M382.293903,131.779281 C244.105703,131.779281 132.061573,243.783899 132.061573,381.958927 C132.061573,520.120785 244.105703,632.125403 382.293903,632.125403 C520.495273,632.125403 632.526233,520.120785 632.526233,381.958927 C632.526233,243.783899 520.495273,131.779281 382.293903,131.779281" id="Fill-12" opacity="0.8"></path>
            </g>
        </g>
    </g>
</svg>
