<svg viewBox="0 0 217 217" version="1.1" xmlns="http://www.w3.org/2000/svg">
    <g stroke="none" stroke-width="1" fill="none" fill-rule="evenodd">
        <g transform="translate(0.655172, 0.655172)" fill="#005384" fill-rule="nonzero">
            <path d="M107.931034,0.379310345 C48.5509017,0.379310345 0.413793103,48.516419 0.413793103,107.896552 C0.413793103,167.276684 48.5509017,215.413793 107.931034,215.413793 C167.311167,215.413793 215.448276,167.276684 215.448276,107.896552 C215.448276,79.3812064 204.120599,52.0337753 183.957205,31.8703813 C163.793811,11.7069872 136.44638,0.379310345 107.931034,0.379310345 Z M13.5172414,147.758621 C13.3981817,147.351863 13.2363588,146.958864 13.0344828,146.586207 C21.3793103,146.586207 47.5172414,146.586207 62.0689655,146.586207 C77.6242583,145.990507 90.5487923,134.398996 92.8275862,119 C96.1718675,100.575916 84.2015072,82.8499855 65.862069,79.0689655 C61.4408738,78.2394228 56.9039538,78.2394228 52.4827586,79.0689655 C50.8772178,79.5601565 49.1335395,79.2524485 47.7931034,78.2413793 C46.5531287,77.3237289 46.2498923,75.5952813 47.1034483,74.3103448 C48.040851,72.9623956 49.2363373,71.8137912 50.6206897,70.9310345 L51.2413793,70.5172414 C66.3812124,59.4177876 86.2563426,57.1366051 103.517241,64.5172414 C124.420113,73.7379511 136.928243,95.4501364 134.419152,118.158197 C131.910061,140.866257 114.963433,159.323886 92.5517241,163.758621 C88.2192109,164.466322 83.838127,164.835255 79.4482759,164.862069 L22.6896552,164.862069 C19.0980225,159.463913 16.0267831,153.737091 13.5172414,147.758621 Z M180.344828,180.310345 C161.147797,199.53131 135.096666,210.33155 107.931034,210.33155 C80.7654034,210.33155 54.7142724,199.53131 35.5172414,180.310345 C32.4003037,177.150717 29.4973241,173.786947 26.8275862,170.241379 L82,170.241379 C99.159829,170.500107 115.588587,163.304663 127.034483,150.517241 C130.641975,146.324469 133.701047,141.689512 136.137931,136.724138 C136.660919,135.76091 137.662697,135.154571 138.758621,135.137931 C139.81618,135.16411 140.794423,135.704718 141.37931,136.586207 L142.689655,138.862069 C143.517241,140.310345 144.275862,141.689655 145.172414,143.068966 C149.397246,149.02985 154.461035,154.349151 160.206897,158.862069 C166.593344,163.042901 173.566211,166.25042 180.896552,168.37931 L182.482759,168.37931 C185.655172,168.931034 187.586207,169.275862 189.37931,169.413793 C186.616097,173.244866 183.597759,176.885304 180.344828,180.310345 L180.344828,180.310345 Z M202.275862,147.758621 C199.782881,153.723109 196.710692,159.428602 193.103448,164.793103 C191.417014,164.734987 189.735713,164.573766 188.068966,164.310345 C177.396947,162.278095 167.3688,157.713396 158.827586,151 C148.019281,141.616283 141.723023,128.070548 141.517241,113.758621 C141.895943,82.7436507 118.102237,56.7759006 87.1724138,54.4482759 C79.7079292,53.9116928 72.2079328,54.7294494 65.0344828,56.862069 L64.6206897,56.862069 L63.1724138,57.2758621 C62.5359195,57.4118631 61.8778737,57.4118631 61.2413793,57.2758621 C60.1533807,57.0245516 59.284271,56.2081152 58.9655172,55.137931 C58.6435701,54.1191151 58.9086459,53.0057968 59.6551724,52.2413793 C62.1176532,49.9688566 64.8787638,48.0430399 67.862069,46.5172414 L68.3448276,46.5172414 C91.992959,32.7479767 121.183125,32.6096593 144.960683,46.1541975 C168.73824,59.6987358 183.506877,84.8775424 183.724138,112.241379 C184.068966,131.068966 190.62069,142.310345 202.965517,145.62069 L202.965517,145.62069 C202.896552,146.172414 202.896552,146.931034 202.275862,147.758621 L202.275862,147.758621 Z M189.103448,112.172414 C188.827332,71.5349064 158.852252,37.2190129 118.62069,31.4827586 C81.172529,25.8894511 44.7043261,46.4241168 30.0689655,81.3448276 C26.0358985,90.8816594 23.9490703,101.12822 23.9310345,111.482759 C23.9310345,112.310345 23.9310345,115 26.6896552,115 L26.6896552,115 C29.1034483,115 29.4482759,112.655172 29.5172414,111.689655 C29.8413167,98.8574886 38.5151124,87.744956 50.8845431,84.3146923 C63.2539738,80.8844286 76.4121822,85.9425571 83.2988883,96.7750454 C90.1855944,107.607534 89.1823994,121.668711 80.8275862,131.413793 C76.0121846,137.327363 68.798543,140.769662 61.1724138,140.793103 L44.2758621,140.793103 L10.6896552,140.793103 C7.06103238,130.132474 5.19743418,118.950885 5.172369,107.689655 C5.14696059,80.5095669 15.9706153,54.4434259 35.2413793,35.2758621 C54.4375825,16.0562374 80.4910782,5.26264634 107.655172,5.27584995 C121.43573,5.27584995 135.070824,8.0930224 147.724138,13.5517241 C185.639169,29.5725905 210.278729,66.7356751 210.275862,107.896552 C210.275862,118.692743 208.577059,129.421696 205.241379,139.689655 C197.310345,137.206897 189.724138,129.137931 189.103448,112.172414 Z" id="Shape"></path>
        </g>
    </g>
</svg>
