<svg viewBox="0 0 173 58" version="1.1" xmlns="http://www.w3.org/2000/svg">
    <g id="Page-1" stroke="none" stroke-width="1" fill="none" fill-rule="evenodd">
        <g id="sc_logo_horizontal_blue" fill="#005384" fill-rule="nonzero">
            <g id="logo-surf" transform="translate(64.000000, 8.000000)">
                <path d="M7.73187941,6.78389099 C5.11866581,6.27845495 4.22963438,5.75528431 4.22963438,4.41632217 C4.22963438,3.2901752 5.33418858,2.57192398 7.05837075,2.57192398 C8.73544897,2.60996155 10.361066,3.15121213 11.7190507,4.1237013 L13.4432328,1.87140737 C11.6471022,0.569858876 9.45474417,-0.0870938501 7.22899294,0.00927458208 C2.73893521,0.00927458208 0.628608082,2.13742633 0.628608082,4.91289091 C0.628608082,8.09625124 2.75689545,9.15145982 6.9146889,9.96725132 C9.66260423,10.5170239 10.3899936,11.1377348 10.3899936,12.3791566 C10.3899936,13.6205785 9.23155869,14.43637 7.26491341,14.43637 C5.29426145,14.4537799 3.37252888,13.8305977 1.79602309,12.6629102 L0,14.8620004 C2.08542034,16.3464809 4.61551176,17.0959727 7.18409237,16.9901521 C10.9288005,16.9901521 14,15.385171 14,11.8471187 C13.9820398,8.93864464 12.1231559,7.6174171 7.73187941,6.78389099 Z" id="Path"></path>
                <path d="M28.4594595,10.6261237 C28.4594595,12.9994712 27.3243243,14.4108937 24.7567568,14.4108937 C22.1891892,14.4108937 21.027027,12.9725013 21.027027,10.572184 L21.027027,0 L17,0 L17,10.6261237 C17,14.9413009 19.8918919,17 24.5405405,17 C29.1891892,17 32,14.7974617 32,10.5002644 L32,0 L28.4594595,0 L28.4594595,10.6261237 Z" id="Path"></path>
                <path d="M49.5,5.06730769 C49.5,1.90705128 46.9736842,0 42.2368421,0 L36,0 L36,17 L39.7894737,17 L39.7894737,10.2617521 L42.2368421,10.2617521 L45.8157895,17 L50,17 L46.0263158,9.73504274 C48.3421053,8.91773504 49.5,7.27403846 49.5,5.06730769 Z M42.2368421,7.79166667 L39.7894737,7.79166667 L39.7894737,2.64262821 L42.1578947,2.64262821 C44.3421053,2.64262821 45.5526316,3.50534188 45.5526316,5.16720085 C45.5526316,6.82905983 44.3421053,7.79166667 42.2368421,7.79166667 Z" id="Shape"></path>
                <polygon id="Path" points="53 17 57.0833333 17 57.0833333 10.2889957 63.3611111 10.2889957 63.3611111 7.40117521 57.0833333 7.40117521 57.0833333 2.88782051 65 2.88782051 65 0 53 0"></polygon>
            </g>
            <g id="logo-captain" transform="translate(63.000000, 33.000000)">
                <path d="M8.69262057,14.4049844 C5.90354445,14.4049844 4.31377106,12.4543094 4.31377106,8.5 C4.31377106,4.54569055 5.98721673,2.59501558 8.46949448,2.59501558 C10.5613016,2.59501558 11.4816967,3.80425753 12.1882626,5.94911734 L15.7861708,4.82814123 C15.1167926,1.99480789 12.8855317,0 8.61824521,0 C3.51423591,0 0,3.2834891 0,8.5 C0,13.7165109 3.3747821,17 8.56246368,17 C12.5229518,17 14.7542127,15.2346833 16,12.4543094 L13.0156886,11.3333333 C11.9837304,13.4517134 10.8123184,14.4049844 8.69262057,14.4049844 Z" id="Path"></path>
                <path d="M23.1599371,0 L17,17 L20.4855794,17 L21.8227583,13.1376 L28.4373361,13.1376 L29.7745149,17 L34,17 L27.8489775,0 L23.1599371,0 Z M22.6518091,10.5445333 L25.1122181,3.4 L27.5637126,10.5445333 L22.6518091,10.5445333 Z" id="Shape"></path>
                <path d="M43.3536346,0 L37,0 L37,17 L40.9607073,17 L40.9607073,10.7521368 L43.1611002,10.7521368 C48.3320236,10.7521368 51,8.79059829 51,5.3034188 C51,1.81623932 48.2495088,0 43.3536346,0 Z M43.3536346,8.10950855 L40.9882122,8.10950855 L40.9882122,2.6607906 L43.3261297,2.6607906 C45.5815324,2.6607906 46.9292731,3.4508547 46.9292731,5.38514957 C46.9292731,7.31944444 45.5540275,8.10950855 43.3261297,8.10950855 L43.3536346,8.10950855 Z" id="Shape"></path>
                <polygon id="Path" points="67 0 52 0 52 2.9150641 57.4470803 2.9150641 57.4470803 17 61.5529197 17 61.5529197 2.9150641 67 2.9150641"></polygon>
                <path d="M72.1574803,0 L66,17 L69.480315,17 L70.8188976,13.1376 L77.4314961,13.1376 L78.7700787,17 L83,17 L76.8425197,0 L72.1574803,0 Z M71.6488189,10.5445333 L74.111811,3.4 L76.5748031,10.5445333 L71.6488189,10.5445333 Z" id="Shape"></path>
                <rect id="Rectangle" x="86" y="0" width="4" height="17"></rect>
                <polygon id="Path" points="106.486486 0 106.486486 10.8247863 98.8918919 0 95 0 95 17 98.4864865 17 98.4864865 5.5849359 106.540541 17 110 17 110 0"></polygon>
            </g>
            <g id="logo-mark">
                <path d="M55.78,27.8 C55.5565743,27.7939969 55.3336608,27.8243942 55.12,27.89 C54.7546265,27.9845062 54.3767783,28.0216163 54,28 C52.9925699,28.0094311 51.9869702,27.9122231 51,27.71 C51,27.48 50.87,27.41 50.68,27.41 L49.68,27.41 C49.5,27.41 49.46,27.34 49.45,27.15 C49.44,26.96 49.45,26.63 49.38,26.37 C48.8490336,22.1939567 47.0316781,18.2866425 44.18,15.19 C44.06,15.05 44.01,14.96 44.18,14.82 C44.35,14.68 44.5,14.45 44.68,14.29 C44.86,14.13 45.06,13.86 44.76,13.59 C44.7163174,13.5379507 44.7163174,13.4620493 44.76,13.41 L44.76,13.41 C45.15,13.41 46.51,11.1 47.29,10.69 C47.8853157,10.3428371 48.3652646,9.82810932 48.67,9.21 C48.8357972,8.90328448 48.9185323,8.5585546 48.91,8.21 C48.9130856,8.01017691 48.8329801,7.81806075 48.6888509,7.67962093 C48.5447218,7.54118111 48.3495369,7.46887357 48.15,7.48 L48.15,7.48 C47.2039574,7.60795088 46.3718344,8.17009619 45.9,9 C45.59,9.83 43.27,11.7 43.23,12.05 C43.1518585,12.0410404 43.0748087,12.0242904 43,12 C42.9449732,11.9345645 42.8653645,11.8947601 42.78,11.89 C42.68,11.89 42.59,11.97 42.5,12.08 C42.41,12.19 42.11,12.5 41.93,12.72 C41.75,12.94 41.81,12.84 41.74,12.84 C41.6722909,12.8360148 41.6083301,12.8075878 41.56,12.76 C38.6195403,10.4900137 35.1118336,9.07171022 31.42,8.66 L31,8.66 C30.83,8.66 30.66,8.66 30.59,8.53 C30.52,8.4 30.52,7.97 30.54,7.67 C30.56,7.37 30.54,6.98 30.06,6.97 C29.8617927,5.70235233 29.8415977,4.41323425 30,3.14 C30.1398435,2.73911075 30.1876919,2.31189322 30.14,1.89 C30.1386099,1.32910515 29.9523273,0.78431635 29.61,0.34 C29.4684733,0.140331738 29.2442567,0.0153585691 29,1.7985613e-16 C28.7688483,0.00702829508 28.5542731,0.121715007 28.42,0.31 C27.8230587,1.04768896 27.6387693,2.03683415 27.93,2.94 C28.0675996,4.2965546 27.9933793,5.66625707 27.71,7 C27.48,7 27.39,7.12 27.41,7.36 C27.43,7.6 27.41,7.97 27.41,8.28 C27.41,8.59 27.33,8.61 27.08,8.63 C22.6769903,9.03718685 18.5303564,10.8820875 15.28,13.88 C15.2300731,13.9342199 15.1629598,13.9695427 15.09,13.98 C15.03,13.98 14.98,13.98 14.91,13.87 C14.84,13.76 14.55,13.53 14.36,13.36 C14.2606627,13.2209778 14.1390222,13.0993373 14,13 L14,13 C13.87,13 13.77,13.19 13.63,13.23 L13.63,13.23 C12.5726288,12.5276333 11.61699,11.683037 10.79,10.72 C10.4272113,10.1118217 9.88605439,9.63001755 9.24,9.34 C8.96111754,9.18613612 8.64849009,9.10368492 8.33,9.1 L8.33,9.1 C8.10652788,9.07528678 7.88433999,9.15638471 7.72933075,9.31924252 C7.57432151,9.48210033 7.50428796,9.70801986 7.54,9.93 C7.70533452,10.8569767 8.27794046,11.6608274 9.1,12.12 C10.2274885,12.9032157 11.2090004,13.8779586 12,15 C11.85,15.19 11.88,15.33 12.07,15.48 C12.26,15.63 12.52,15.93 12.78,16.12 C13.04,16.31 12.97,16.42 12.78,16.63 C10.5339163,19.5860343 9.14951125,23.1058841 8.78,26.8 C8.71,27.42 8.71,27.42 8.08,27.42 L7.69,27.42 L7.35,27.42 C7.28038698,27.4095907 7.20961302,27.4095907 7.14,27.42 C6.95,27.5 7.04,27.75 6.94,27.91 C6.10058603,28.0147362 5.2558801,28.0714951 4.41,28.08 C3.98168299,28.1120711 3.55099051,28.0851529 3.13,28 C2.82388954,27.8974721 2.50280827,27.8467751 2.18,27.85 C2.04685282,27.8400359 1.91314718,27.8400359 1.78,27.85 C1.24034742,27.8693571 0.721325963,28.0622367 0.3,28.4 C0.126559117,28.5405039 0.0258057535,28.7517891 0.0258057535,28.975 C0.0258057535,29.1982109 0.126559117,29.4094961 0.3,29.55 C0.866400493,30.0008872 1.57674289,30.2317485 2.3,30.2 C2.52762347,30.2088901 2.75489285,30.1749693 2.97,30.1 C3.33010924,30.0149171 3.70045137,29.9812496 4.07,30 C5.05414395,29.9814165 6.03718805,30.0753593 7,30.28 C7,30.53 7.14,30.58 7.33,30.58 L8.46,30.58 C8.65,30.58 8.69,30.66 8.71,30.87 C9.0748851,35.0086615 10.70149,38.9355511 13.37,42.12 C13.58,42.38 14,42.62 13.97,42.89 C13.94,43.16 13.56,43.43 13.31,43.67 C13.06,43.91 12.88,44.13 13.21,44.43 C13.21,44.43 12.67,45.19 12.68,45.21 L12.68,45.21 C12.1188305,45.9975676 11.444964,46.6983887 10.68,47.29 C10.0735759,47.6384256 9.58582536,48.1610155 9.28,48.79 C9.11413734,49.0781858 9.034321,49.407862 9.05,49.74 C9.03825985,49.9449386 9.11455351,50.1451443 9.2597046,50.2902954 C9.4048557,50.4354465 9.60506135,50.5117401 9.81,50.5 L9.9,50.5 C10.8273494,50.3295136 11.6323097,49.7587236 12.1,48.94 C12.8885704,47.7990026 13.8699115,46.8041258 15,46 L15,46 C15.0580513,46.0599514 15.1366605,46.0956828 15.22,46.1 C15.31,46.1 15.39,46.04 15.48,45.93 C15.69,45.67 15.95,45.44 16.16,45.18 C16.23,45.09 16.29,45.05 16.35,45.05 C16.4253846,45.0619087 16.4952423,45.0968375 16.55,45.15 C17.8239707,46.1526942 19.2180723,46.9925145 20.7,47.65 C22.7349444,48.5771675 24.9125716,49.152007 27.14,49.35 C27.36,49.35 27.44,49.44 27.42,49.67 C27.4,49.9 27.42,50.15 27.42,50.39 C27.42,50.63 27.42,51.01 27.88,51.01 C28.0886561,52.2726937 28.122306,53.5581188 27.98,54.83 C27.8479991,55.2224298 27.793655,55.6368035 27.82,56.05 C27.8256012,56.6351336 28.0261827,57.2016882 28.39,57.66 C28.533441,57.8575226 28.7565614,57.9818848 29,58 C29.2241188,57.9946643 29.4337364,57.8880167 29.57,57.71 C30.1686882,56.9733608 30.3566,55.9849449 30.07,55.08 C29.9289845,53.7168766 30.0032248,52.3400563 30.29,51 C30.5,51 30.59,50.88 30.57,50.66 C30.55,50.44 30.57,50.16 30.57,49.91 C30.57,49.43 30.57,49.43 31.05,49.39 C33.7613177,49.1219911 36.3905622,48.3090682 38.78,47 C40.2242849,46.2361497 41.5679357,45.2955941 42.78,44.2 C42.8371426,44.1356275 42.9149409,44.0931921 43,44.08 C43.0813963,44.0876571 43.1549395,44.1317831 43.2,44.2 C43.36,44.37 43.55,44.5 43.7,44.67 C43.85,44.84 43.95,44.93 44.09,44.93 C44.2073804,44.9200398 44.3139693,44.8575567 44.38,44.76 L44.38,44.76 C45.473447,45.4418436 46.4578436,46.284649 47.3,47.26 C47.6680558,47.9079279 48.2416331,48.4146465 48.93,48.7 C49.157655,48.8102721 49.4070494,48.8683502 49.66,48.87 L49.66,48.87 C49.8939531,48.9006366 50.1282873,48.8163061 50.2890683,48.6436153 C50.4498494,48.4709246 50.5172482,48.2311715 50.47,48 C50.344193,47.0573344 49.7385772,46.2473234 48.87,45.86 C47.7760904,45.055091 46.8087223,44.0910935 46,43 C46.19,42.79 46.08,42.67 45.91,42.52 C45.74,42.37 45.48,42.12 45.26,41.93 C45.04,41.74 45.13,41.73 45.26,41.59 C47.590744,38.6084358 49.0388789,35.0331362 49.44,31.27 C49.52,30.59 49.52,30.59 50.21,30.59 L50.57,30.59 C50.6757273,30.6100197 50.7842727,30.6100197 50.89,30.59 C51,30.54 51.01,30.26 51.07,30.09 C51.8606386,30.0066233 52.6549839,29.9632347 53.45,29.96 C53.9204244,29.9387457 54.3915321,29.9824914 54.85,30.09 C55.1715197,30.200972 55.5099065,30.2551139 55.85,30.25 L56.11,30.25 C56.6821129,30.2413708 57.2361945,30.0484943 57.69,29.7 C57.8794453,29.5697563 57.9997531,29.3607584 58.0172369,29.1315265 C58.0347207,28.9022947 57.9475011,28.6774685 57.78,28.52 C57.2264635,28.0389611 56.5131322,27.7821619 55.78,27.8 Z M8.46,29.86 L7.58,29.86 C7.33,29.56 6.58,29.26 4.07,29.26 C3.58983,29.2377079 3.10942091,29.2986048 2.65,29.44 C2.51114608,29.4653339 2.36885392,29.4653339 2.23,29.44 C1.70582213,29.4640749 1.18857021,29.3127699 0.76,29.01 L0.71,29 L0.71,29 C0.71,29 0.71,29 0.78,28.92 C1.08051702,28.6764166 1.45327345,28.5392703 1.84,28.53 L2.18,28.53 C2.42136635,28.523508 2.6619136,28.5607759 2.89,28.64 C3.38495005,28.7742834 3.89761329,28.8316208 4.41,28.81 C7.22,28.81 7.41,28.51 7.54,28.31 L7.62,28.14 L8.05,28.14 C8.27876817,28.1469315 8.50744157,28.1233916 8.73,28.07 C8.73,28.67 8.73,29.28 8.73,29.89 C8.64178363,29.8677649 8.55094563,29.8576718 8.46,29.86 Z M42.46,13.16 L42.7,12.9 L42.87,12.72 L42.97,12.72 C43.0567412,12.7510199 43.1479029,12.7679018 43.24,12.77 C43.3669833,12.7709347 43.4916912,12.7362936 43.6,12.67 C43.740669,12.5907362 43.8474021,12.4626564 43.9,12.31 C44.02,12.15 44.43,11.76 44.73,11.46 C45.4727357,10.8414683 46.0962941,10.0925204 46.57,9.25 C46.9526417,8.73503529 47.5115487,8.37904357 48.14,8.25 L48.2,8.31 C48.2062431,8.52000103 48.1543326,8.72764289 48.05,8.91 C47.8253468,9.39653561 47.4594847,9.80421054 47,10.08 C46.3250006,10.5635229 45.7480896,11.1709762 45.3,11.87 C45.0693891,12.179657 44.8223691,12.4767487 44.56,12.76 C44.4259738,12.8108345 44.3107846,12.9015896 44.23,13.02 C44.042274,13.2735672 44.0188605,13.6130628 44.17,13.89 L43.96,14.12 C43.9,14.18 43.85,14.25 43.78,14.31 C43.6903183,14.3853429 43.6156763,14.476949 43.56,14.58 C43.14,14.16 42.71,13.76 42.26,13.38 C42.3357819,13.3184145 42.4001014,13.2439392 42.45,13.16 L42.46,13.16 Z M28.13,7.85 L28.13,7.58 C28.1939357,7.53110115 28.2511011,7.47393572 28.3,7.41 C28.7068855,5.88820922 28.8054836,4.30043897 28.59,2.74 C28.368898,2.0489962 28.5201351,1.29281042 28.99,0.74 C29.0217669,0.756766263 29.0491653,0.78073984 29.07,0.81 C29.3209911,1.14104553 29.4578382,1.54456888 29.46,1.96 C29.4923238,2.29734988 29.4548806,2.63774261 29.35,2.96 C29.1089823,4.43934712 29.163362,5.95178207 29.51,7.41 C29.5965099,7.53123022 29.7189516,7.62218694 29.86,7.67 L29.86,7.81 C29.7961609,8.09648669 29.7961609,8.39351331 29.86,8.68 L29.03,8.68 L28.03,8.68 C28.0498627,8.5474064 28.0498627,8.4125936 28.03,8.28 C28.12,8.11 28.13,8 28.13,7.85 Z M12.87,15.29 L12.68,15.1 C12.6949189,15.0106183 12.6949189,14.9193817 12.68,14.83 C11.835241,13.4790298 10.7055782,12.3288897 9.37,11.46 C8.80128769,11.1107903 8.38932171,10.5555318 8.22,9.91 C8.21432467,9.88026841 8.21432467,9.84973159 8.22,9.82 L8.33,9.82 C8.526236,9.8226533 8.71871154,9.87420924 8.89,9.97 C9.3911453,10.208201 9.8092022,10.5914199 10.09,11.07 C10.41,11.67 13,14 13.55,14 L13.55,14 C13.6129692,14.0096052 13.6770308,14.0096052 13.74,14 L13.88,13.95 L13.88,13.95 L14,14 C14.1306431,14.1086883 14.2542269,14.2255919 14.37,14.35 C14.4480901,14.4368456 14.5391717,14.5110603 14.64,14.57 C14.22,14.98 13.83,15.42 13.45,15.87 C13.3648325,15.7410177 13.2563014,15.6290949 13.13,15.54 C13.0394752,15.4607744 12.9527133,15.3773496 12.87,15.29 L12.87,15.29 Z M15.61,44.75 C15.52,44.86 15.41,44.97 15.31,45.08 L15.09,45.31 L15,45.31 C14.34,45.31 11.76,47.84 11.44,48.67 C11.0772129,49.2221673 10.5205746,49.6182368 9.88,49.78 L9.88,49.78 C9.81,49.78 9.79,49.78 9.79,49.7 C9.79097883,49.5003705 9.8425888,49.3042526 9.94,49.13 C10.1725476,48.6167567 10.5609479,48.1898663 11.05,47.91 C11.8593995,47.3379476 12.5575193,46.6228831 13.11,45.8 L13.2,45.69 L13.25,45.62 L13.31,45.54 L13.46,45.32 C13.78,44.88 14.06,44.49 13.86,44.11 L13.94,44.05 C14.212751,43.8383133 14.434816,43.5684189 14.59,43.26 C15.02,43.7 15.46,44.1 15.9,44.49 C15.7910983,44.5619661 15.6933841,44.6495719 15.61,44.75 L15.61,44.75 Z M29.85,49.9 L29.85,50.44 C29.7871551,50.4828883 29.7328883,50.5371551 29.69,50.6 C29.2802965,52.1246138 29.1783131,53.7155534 29.39,55.28 C29.6126515,55.9678492 29.4694117,56.7217428 29.01,57.28 C28.9738436,57.2658934 28.9425726,57.2415715 28.92,57.21 C28.6603557,56.8638077 28.52,56.4427404 28.52,56.01 C28.4920248,55.6719827 28.5328465,55.3318019 28.64,55.01 C28.8696129,53.5285881 28.8050496,52.0164488 28.45,50.56 C28.3689476,50.450578 28.2577398,50.3671722 28.13,50.32 C28.13,50.19 28.13,50.07 28.13,49.94 C28.1250106,49.8534051 28.1250106,49.7665949 28.13,49.68 C28.1510723,49.5542097 28.1510723,49.4257903 28.13,49.3 L28.81,49.3 L29.95,49.3 C29.8832443,49.4929742 29.8494389,49.6958064 29.85,49.9 L29.85,49.9 Z M45.31,42.9 C45.2951343,42.9692107 45.2951343,43.0407893 45.31,43.11 C46.1460513,44.4585769 47.2485508,45.6223264 48.55,46.53 C49.2151851,46.8356374 49.6814367,47.4560529 49.79,48.18 C49.7435045,48.1856528 49.6964955,48.1856528 49.65,48.18 C49.5007605,48.1812751 49.3533624,48.1469965 49.22,48.08 C48.6781969,47.8708531 48.2186318,47.4919751 47.91,47 C47.54,46.3 44.96,44.12 44.37,44.12 C44.2871053,44.1258012 44.2058724,44.1461095 44.13,44.18 L43.9,43.97 C43.8319156,43.9152226 43.768375,43.8550262 43.71,43.79 C43.6244323,43.6934624 43.5229662,43.6122895 43.41,43.55 C43.68,43.28 43.94,43 44.19,42.72 L44.61,42.24 C44.6658314,42.3342751 44.7367768,42.4187339 44.82,42.49 C44.9278929,42.574627 45.0313629,42.664746 45.13,42.76 L45.31,42.9 Z M43.66,42.22 C41.6883981,44.4182359 39.2342006,46.1296707 36.49,47.22 C36.39,47.22 34.94,47.8 34.33,47.95 C32.5135468,48.3973205 30.6506884,48.6289191 28.78,48.64 C23.23,48.64 18.35,46.4 14.22,41.82 C11.3704364,38.6451718 9.69410006,34.5902026 9.47,30.33 C8.89227355,21.7803739 13.9103633,13.8387718 21.88,10.69 L22.28,10.54 C24.4492355,9.73253302 26.7453542,9.31936712 29.06,9.31998014 C34.6290166,9.31209768 39.9409262,11.6628538 43.68,15.79 C46.3905759,18.7321072 48.111173,22.4495763 48.6,26.42 C49.4103043,32.1613366 47.596438,37.9627714 43.66,42.22 L43.66,42.22 Z M57.2,29.08 C56.8580619,29.3320089 56.4447684,29.4686059 56.02,29.47 L55.81,29.47 C55.5617565,29.4700075 55.315178,29.429474 55.08,29.35 C54.5501346,29.2018529 53.9990317,29.1443759 53.45,29.18 C50.6,29.18 50.54,29.37 50.4,29.79 C50.3940726,29.8129569 50.3940726,29.8370431 50.4,29.86 L50.2,29.86 C49.9502425,29.8532965 49.7008696,29.8836256 49.46,29.95 C49.46,29.34 49.46,28.72 49.46,28.1 C49.5695087,28.1147025 49.6804913,28.1147025 49.79,28.1 L50.4,28.1 C50.64,28.4 51.4,28.68 54,28.68 C54.4625575,28.708917 54.9265543,28.6547276 55.37,28.52 C55.5091554,28.4982519 55.6508446,28.4982519 55.79,28.52 C56.3300002,28.494722 56.8604042,28.6691501 57.28,29.01 C57.2594562,29.0395219 57.2319877,29.0635568 57.2,29.08 L57.2,29.08 Z" id="Shape"></path>
                <path d="M35,15.56 C29.6066514,13.2859845 23.3806257,14.3921928 19.1007168,18.384903 C14.8208078,22.3776132 13.2854881,28.5119336 15.18,34.05 L20.05,34.05 L22.46,34.05 C23.5628652,34.0434731 24.6063021,33.5492135 25.31,32.7 C26.5128747,31.2859293 26.6531491,29.2528044 25.6558738,27.6869354 C24.6585985,26.1210665 22.7568741,25.3884559 20.9668028,25.8805416 C19.1767315,26.3726274 17.9167202,27.9743905 17.86,29.83 C17.86,29.98 17.8,30.31 17.46,30.31 L17.46,30.31 C17.08,30.31 17.05,29.92 17.05,29.81 C17.0614496,28.3062687 17.3636675,26.8189491 17.94,25.43 C20.0664834,20.3663722 25.3591527,17.3925922 30.79,18.21 C36.6031704,19.0393878 40.9403407,23.9882648 41,29.86 C41.06,32.33 42.16,33.5 43.32,33.86 C43.8036735,32.3711459 44.0500018,30.8154478 44.0500018,29.25 C44.0519163,25.3112063 42.4868456,21.5334495 39.7,18.75 C38.3535148,17.3937574 36.7575778,16.3105576 35,15.56 Z" id="Path"></path>
                <path d="M40.22,29.82 C40.2097598,29.1488915 40.1428554,28.479847 40.02,27.82 C39.3042135,24.2982672 36.9433664,21.3332123 33.6714768,19.8467095 C30.3995872,18.3602067 26.6133665,18.5324922 23.49,20.31 L23.42,20.31 C22.9927001,20.534918 22.5961115,20.8138744 22.24,21.14 C22.1301582,21.2498518 22.0881077,21.4104083 22.13,21.56 C22.1749996,21.7179214 22.300769,21.8398797 22.46,21.88 C22.5556069,21.9002433 22.6543931,21.9002433 22.75,21.88 L22.95,21.82 L23,21.82 C24.0416729,21.5013919 25.1342,21.3826389 26.22,21.47 C30.7055919,21.7976616 34.1595726,25.5628511 34.1,30.06 C34.1193501,32.1383141 35.0297304,34.108377 36.6,35.47 C37.841064,36.437203 39.2943988,37.0953168 40.84,37.39 C41.0816784,37.4281961 41.325467,37.4515731 41.57,37.46 C42.0959355,36.6857307 42.544746,35.861795 42.91,35 C42.96,34.89 43,34.77 43.05,34.66 L43.05,34.66 C41.21,34.18 40.27,32.55 40.22,29.82 Z" id="Path"></path>
                <path d="M27,37.35 C30.3082478,36.750395 32.82938,34.0483422 33.1986405,30.7065349 C33.567901,27.3647275 31.6975262,24.1774253 28.6,22.87 C26.0937708,21.8000955 23.2091319,22.1307458 21.01,23.74 L20.92,23.81 C20.719224,23.9337798 20.5457097,24.0970873 20.41,24.29 C20.3005435,24.479083 20.3427163,24.7194679 20.51,24.86 C20.7033074,25.0085346 20.9555344,25.0567545 21.19,24.99 C21.8339739,24.8648287 22.4960261,24.8648287 23.14,24.99 C25.7881681,25.5611697 27.4997646,28.1374327 27,30.8 C26.6740389,33.0312869 24.8032863,34.7128624 22.55,34.8 C20.47,34.8 16.64,34.8 15.44,34.8 C15.44,34.86 15.44,34.92 15.51,34.97 C15.8715468,35.8316512 16.3170278,36.6556235 16.84,37.43 L25.06,37.43 C25.7077644,37.4544536 26.3564483,37.4277038 27,37.35 L27,37.35 Z" id="Path"></path>
                <path d="M39.77,38.05 C38.7065829,37.738054 37.6955089,37.2695897 36.77,36.66 C35.9344381,36.0082843 35.1998279,35.2366066 34.59,34.37 C34.459783,34.1728721 34.3396292,33.9692781 34.23,33.76 L34,33.44 C33.9162649,33.3096337 33.7747501,33.2277041 33.62,33.22 C33.4653014,33.2278762 33.325528,33.3147624 33.25,33.45 C32.8915051,34.169348 32.4447263,34.8411959 31.92,35.45 C30.2750216,37.2952811 27.9118853,38.3382703 25.44,38.31 L17.44,38.31 C17.8297554,38.8188063 18.2505561,39.303061 18.7,39.76 C22.9819484,44.0361182 29.4303318,45.2862342 35,42.92 C36.7678284,42.1819746 38.3720144,41.1011883 39.72,39.74 C40.1809813,39.2703302 40.6086833,38.7691169 41,38.24 C40.664365,38.2067781 40.330611,38.156715 40,38.09 L39.77,38.05 Z" id="Path"></path>
                <path d="M29,10 C18.5065898,10 10,18.5065898 10,29 C10,39.4934102 18.5065898,48 29,48 C39.4934102,48 48,39.4934102 48,29 C48,18.5065898 39.4934102,10 29,10 Z M37,13.24 C37.1492724,13.2318249 37.2954414,13.2847659 37.4048568,13.3866353 C37.5142721,13.4885048 37.5775056,13.6305247 37.58,13.78 C37.58,14.0671881 37.3471881,14.3 37.06,14.3 C36.9097298,14.300024 36.7657549,14.2396534 36.6604423,14.1324602 C36.5551297,14.025267 36.4973166,13.8802462 36.5,13.73 C36.5026253,13.6000351 36.5567853,13.4764393 36.6505595,13.3864161 C36.7443336,13.2963929 36.8700362,13.2473206 37,13.25 L37,13.24 Z M28.9,11.3 C29.0430975,11.2944636 29.1821442,11.3481854 29.284347,11.4484955 C29.3865498,11.5488057 29.442861,11.686824 29.44,11.83 C29.423894,12.1258882 29.1762689,12.3558258 28.88,12.35 C28.6604457,12.4271882 28.4162238,12.3521181 28.2779337,12.1649339 C28.1396435,11.9777496 28.1396435,11.7222504 28.2779337,11.5350661 C28.4162238,11.3478819 28.6604457,11.2728118 28.88,11.35 L28.9,11.3 Z M20.82,13.3 C21.1048406,13.316089 21.3258369,13.5547651 21.32,13.84 C21.3149606,13.9895692 21.24919,14.1306267 21.1378592,14.2306357 C21.0265285,14.3306447 20.8792516,14.3809688 20.73,14.37 C20.5917623,14.365169 20.4617022,14.3032875 20.3707506,14.1990722 C20.2797991,14.0948569 20.2360834,13.9576203 20.25,13.82 C20.294628,13.5407593 20.5372378,13.3364563 20.82,13.34 L20.82,13.3 Z M14.58,18.9 C14.8671881,18.9 15.1,19.1328119 15.1,19.42 C15.102676,19.5685281 15.0462275,19.7120335 14.9430775,19.8189344 C14.8399274,19.9258354 14.6985289,19.9873714 14.55,19.99 C14.2628119,19.99 14.03,19.7571881 14.03,19.47 C14.0588144,19.1824876 14.2916179,18.9581497 14.58,18.94 L14.58,18.9 Z M11.66,27.9 C11.4331918,27.899061 11.2302195,27.7589902 11.1488706,27.5472705 C11.0675216,27.3355509 11.124481,27.0956067 11.292307,26.9430377 C11.4601329,26.7904686 11.7044038,26.7565671 11.9074355,26.8576661 C12.1104671,26.9587651 12.2306172,27.1741288 12.21,27.4 C12.1887917,27.6864031 11.9471224,27.9061025 11.66,27.9 L11.66,27.9 Z M12.66,35.77 C12.360117,35.7538338 12.1286439,35.5001037 12.14,35.2 C12.14,34.9128119 12.3728119,34.68 12.66,34.68 C12.8103678,34.6851526 12.9523371,34.7505955 13.0539187,34.8615829 C13.1555003,34.9725702 13.2081484,35.1197648 13.2,35.27 C13.1949762,35.4116271 13.1323664,35.5450685 13.026655,35.6394536 C12.9209436,35.7338388 12.7812893,35.7809903 12.64,35.77 L12.66,35.77 Z M17.37,42.7 C17.0723948,42.6904308 16.8303813,42.4570606 16.81,42.16 C16.8073222,42.0220801 16.8595557,41.8887478 16.9552047,41.7893479 C17.0508537,41.689948 17.1820791,41.6326268 17.32,41.63 C17.6200917,41.623583 17.8737387,41.8509907 17.9,42.15 C17.9056809,42.2975374 17.849561,42.4407571 17.7451591,42.5451591 C17.6407571,42.649561 17.4975374,42.7056809 17.35,42.7 L17.37,42.7 Z M24.75,46.64 C24.4518526,46.6460824 24.2012386,46.4174521 24.1799999,46.12 C24.1798974,45.9759004 24.2384735,45.837971 24.3422364,45.7379812 C24.4459994,45.6379915 24.586003,45.5845622 24.73,45.59 C24.8749416,45.5873154 25.0148758,45.6430208 25.1183187,45.7445829 C25.2217615,45.8461449 25.2800249,45.9850335 25.28,46.13 C25.2775149,46.2715272 25.2174421,46.4059254 25.1136487,46.5021702 C25.0098553,46.598415 24.871312,46.6481881 24.73,46.64 L24.75,46.64 Z M33.08,46.7 C32.9367287,46.7002386 32.7997067,46.6413544 32.7012776,46.5372466 C32.6028484,46.4331389 32.5517341,46.2930329 32.56,46.15 C32.5675209,46.0056043 32.6337096,45.8705499 32.7432246,45.7761405 C32.8527395,45.681731 32.9960721,45.6361636 33.14,45.65 C33.2779736,45.6497514 33.4099173,45.7065277 33.5045977,45.806889 C33.5992781,45.9072502 33.6482787,46.0422748 33.64,46.18 C33.6349656,46.3269216 33.5702486,46.4654403 33.4607911,46.5635746 C33.3513335,46.661709 33.2065976,46.7109757 33.06,46.7 L33.08,46.7 Z M40.49,42.84 C40.3520264,42.8402486 40.2200827,42.7834723 40.1254023,42.683111 C40.0307219,42.5827498 39.9817213,42.4477252 39.99,42.31 C40.0061732,42.004595 40.2643777,41.7686495 40.57,41.78 C40.7026169,41.7826258 40.8287559,41.8378396 40.9206543,41.933489 C41.0125528,42.0291384 41.0626789,42.1573842 41.06,42.29 C41.0604054,42.4430715 40.9970012,42.5893875 40.8850339,42.6937637 C40.7730667,42.7981399 40.6226667,42.8511331 40.47,42.84 L40.49,42.84 Z M46.31,26.59 C46.6082338,26.59 46.85,26.8317662 46.85,27.13 C46.85,27.4282338 46.6082338,27.67 46.31,27.67 C46.1598112,27.6756736 46.0140527,27.6184978 45.9077774,27.5122226 C45.8015022,27.4059473 45.7443264,27.2601888 45.75,27.11 C45.7498953,26.9685512 45.8074177,26.8331635 45.9093062,26.7350487 C46.0111946,26.6369339 46.1486558,26.5845596 46.29,26.59 L46.31,26.59 Z M45.31,34.89 C45.4496628,34.8899742 45.5834652,34.9461303 45.6812767,35.0458228 C45.7790854,35.1455154 45.8326858,35.280363 45.83,35.42 C45.8300479,35.7309381 45.5808902,35.9845449 45.27,35.99 C45.1320039,35.9822691 45.0027629,35.919919 44.9108231,35.8167212 C44.8188833,35.7135235 44.7718098,35.5779696 44.78,35.44 C44.7741687,35.1492482 44.9996356,34.9060977 45.29,34.89 L45.31,34.89 Z M29.23,44.83 C20.6198808,44.83 13.64,37.8501192 13.64,29.24 C13.64,20.6298808 20.6198808,13.65 29.23,13.65 C37.8401192,13.65 44.82,20.6298808 44.82,29.24 C44.82,33.3747251 43.1774869,37.3401026 40.2537947,40.2637947 C37.3301026,43.1874869 33.3647251,44.83 29.23,44.83 Z M43.23,18.77 C43.5373037,18.7641846 43.7938782,19.0030644 43.81,19.31 C43.8156565,19.5989412 43.5887928,19.8391498 43.3,19.85 C43.0040351,19.8455344 42.7607381,19.6152712 42.74,19.32 C42.7284135,19.1744044 42.7798058,19.0308282 42.881153,18.9256565 C42.9825002,18.8204849 43.1240752,18.763812 43.27,18.77 L43.23,18.77 Z" id="Shape"></path>
            </g>
        </g>
    </g>
</svg>
