<svg xmlns="http://www.w3.org/2000/svg" viewBox="0 0 271.59 58">
    <g fill="#005384">
        <g id="logo-surf">
            <path d="M76.56,27.06c-2.91-.57-3.9-1.16-3.9-2.67,0-1.27,1.23-2.08,3.15-2.08A9.2,9.2,0,0,1,81,24.06l1.92-2.54A10.89,10.89,0,0,0,76,19.42c-5,0-7.35,2.4-7.35,5.53,0,3.59,2.37,4.78,7,5.7,3.06.62,3.87,1.32,3.87,2.72s-1.29,2.32-3.48,2.32a10,10,0,0,1-6.09-2l-2,2.48a12.77,12.77,0,0,0,8,2.4c4.17,0,7.59-1.81,7.59-5.8C83.52,29.49,81.45,28,76.56,27.06Z"/>
            <path d="M99.59,31.46c0,2.64-1.26,4.21-4.11,4.21s-4.14-1.6-4.14-4.27V19.64H86.87V31.46c0,4.8,3.21,7.09,8.37,7.09s8.28-2.45,8.28-7.23V19.64H99.59Z"/>
            <path d="M123.14,25.22c0-3.48-2.88-5.58-8.28-5.58h-7.11V38.36h4.32V30.94h2.79l4.08,7.42h4.77l-4.53-8C121.82,29.46,123.14,27.65,123.14,25.22Zm-8.28,3h-2.79V22.55h2.7c2.49,0,3.87.95,3.87,2.78S117.26,28.22,114.86,28.22Z"/>
            <polygon points="126.82 38.36 131.23 38.36 131.23 30.97 138.01 30.97 138.01 27.79 131.23 27.79 131.23 22.82 139.78 22.82 139.78 19.64 126.82 19.64 126.82 38.36"/>
        </g>
        <g id="logo-captain">
            <path d="M159.72,35.69c-3,0-4.71-2.21-4.71-6.69s1.8-6.69,4.47-6.69c2.25,0,3.24,1.37,4,3.8l3.87-1.27c-.72-3.21-3.12-5.47-7.71-5.47-5.49,0-9.27,3.72-9.27,9.63s3.63,9.63,9.21,9.63c4.26,0,6.66-2,8-5.15l-3.21-1.27C163.26,34.61,162,35.69,159.72,35.69Z"/>
            <path d="M176,19.61l-6.91,18.75H173l1.5-4.26h7.42l1.5,4.26h4.74l-6.9-18.75Zm-.57,11.63,2.76-7.88,2.75,7.88Z"/>
            <path d="M197.93,19.64H191V38.36h4.32V31.48h2.4c5.64,0,8.55-2.16,8.55-6S203.27,19.64,197.93,19.64Zm0,8.93h-2.58v-6h2.55c2.46,0,3.93.87,3.93,3S200.33,28.57,197.9,28.57Z"/>
            <polygon points="224.32 19.64 207.88 19.64 207.88 22.85 213.85 22.85 213.85 38.36 218.35 38.36 218.35 22.85 224.32 22.85 224.32 19.64"/>
            <path d="M230.5,19.61l-6.9,18.75h3.9L229,34.1h7.41l1.5,4.26h4.74l-6.9-18.75Zm-.57,11.63,2.76-7.88,2.76,7.88Z"/>
            <rect x="245.79" y="19.64" width="4.5" height="18.73"/>
            <polygon points="267.69 19.64 267.69 31.56 259.26 19.64 254.94 19.64 254.94 38.36 258.81 38.36 258.81 25.79 267.75 38.36 271.59 38.36 271.59 19.64 267.69 19.64"/>
        </g>
        <g id="logo-mark">
            <path d="M55.78,27.8a2.06,2.06,0,0,0-.66.09A3.64,3.64,0,0,1,54,28a14.28,14.28,0,0,1-3-.29c0-.23-.13-.3-.32-.3h-1c-.18,0-.22-.07-.23-.26s0-.52-.07-.78a20.28,20.28,0,0,0-5.2-11.18c-.12-.14-.17-.23,0-.37s.32-.37.5-.53.38-.43.08-.7a.14.14,0,0,1,0-.18h0c.39,0,1.75-2.31,2.53-2.72a3.51,3.51,0,0,0,1.38-1.48,2,2,0,0,0,.24-1,.72.72,0,0,0-.76-.73h0A3.06,3.06,0,0,0,45.9,9c-.31.83-2.63,2.7-2.67,3.05A1.18,1.18,0,0,1,43,12a.31.31,0,0,0-.22-.11c-.1,0-.19.08-.28.19s-.39.42-.57.64-.12.12-.19.12a.28.28,0,0,1-.18-.08A20.27,20.27,0,0,0,31.42,8.66H31c-.17,0-.34,0-.41-.13s-.07-.56-.05-.86,0-.69-.48-.7A13.78,13.78,0,0,1,30,3.14a2.83,2.83,0,0,0,.14-1.25A2.55,2.55,0,0,0,29.61.34.81.81,0,0,0,29,0a.74.74,0,0,0-.58.31,2.81,2.81,0,0,0-.49,2.63A13.15,13.15,0,0,1,27.71,7c-.23,0-.32.12-.3.36s0,.61,0,.92-.08.33-.33.35a20.14,20.14,0,0,0-11.8,5.25.32.32,0,0,1-.19.1c-.06,0-.11,0-.18-.11s-.36-.34-.55-.51A1.55,1.55,0,0,0,14,13h0c-.13,0-.23.19-.37.23h0a13.83,13.83,0,0,1-2.84-2.51A3.45,3.45,0,0,0,9.24,9.34a1.93,1.93,0,0,0-.91-.24h0a.72.72,0,0,0-.79.83A3.14,3.14,0,0,0,9.1,12.12,11.75,11.75,0,0,1,12,15c-.15.19-.12.33.07.48s.45.45.71.64.19.3,0,.51a20.12,20.12,0,0,0-4,10.17c-.07.62-.07.62-.7.62H7.69l-.34,0a.71.71,0,0,0-.21,0c-.19.08-.1.33-.2.49a22.24,22.24,0,0,1-2.53.17A4.69,4.69,0,0,1,3.13,28a2.9,2.9,0,0,0-.95-.15,2.68,2.68,0,0,0-.4,0A2.51,2.51,0,0,0,.3,28.4a.74.74,0,0,0,0,1.15,3,3,0,0,0,2,.65,1.82,1.82,0,0,0,.67-.1A3.92,3.92,0,0,1,4.07,30,12.92,12.92,0,0,1,7,30.28c0,.25.14.3.33.3H8.46c.19,0,.23.08.25.29a20.29,20.29,0,0,0,4.66,11.25c.21.26.63.5.6.77s-.41.54-.66.78-.43.46-.1.76c0,0-.54.76-.53.78h0a9.87,9.87,0,0,1-2,2.08,3.49,3.49,0,0,0-1.4,1.5,1.74,1.74,0,0,0-.23.95.72.72,0,0,0,.76.76H9.9a3.2,3.2,0,0,0,2.2-1.56A11.94,11.94,0,0,1,15,46h0a.33.33,0,0,0,.22.1c.09,0,.17-.06.26-.17.21-.26.47-.49.68-.75.07-.09.13-.13.19-.13a.37.37,0,0,1,.2.1,19.49,19.49,0,0,0,4.15,2.5,19.75,19.75,0,0,0,6.44,1.7c.22,0,.3.09.28.32s0,.48,0,.72,0,.62.46.62a13.93,13.93,0,0,1,.1,3.82,3.19,3.19,0,0,0-.16,1.22,2.63,2.63,0,0,0,.57,1.61A.83.83,0,0,0,29,58a.74.74,0,0,0,.57-.29,2.82,2.82,0,0,0,.5-2.63A13.07,13.07,0,0,1,30.29,51c.21,0,.3-.12.28-.34s0-.5,0-.75c0-.48,0-.48.48-.52A20.23,20.23,0,0,0,38.78,47a19.7,19.7,0,0,0,4-2.8.37.37,0,0,1,.22-.12.27.27,0,0,1,.2.12c.16.17.35.3.5.47s.25.26.39.26a.39.39,0,0,0,.29-.17h0a12.82,12.82,0,0,1,2.92,2.5,3.35,3.35,0,0,0,1.63,1.44,1.7,1.7,0,0,0,.73.17h0a.73.73,0,0,0,.81-.87,2.74,2.74,0,0,0-1.6-2.14A13.62,13.62,0,0,1,46,43c.19-.21.08-.33-.09-.48s-.43-.4-.65-.59-.13-.2,0-.34a20.24,20.24,0,0,0,4.18-10.32c.08-.68.08-.68.77-.68h.36a.86.86,0,0,0,.32,0c.11-.05.12-.33.18-.5a23.61,23.61,0,0,1,2.38-.13,5.12,5.12,0,0,1,1.4.13,2.93,2.93,0,0,0,1,.16h.26a2.66,2.66,0,0,0,1.58-.55.76.76,0,0,0,.09-1.18A2.94,2.94,0,0,0,55.78,27.8ZM8.46,29.86H7.58c-.25-.3-1-.6-3.51-.6a4.17,4.17,0,0,0-1.42.18,1.17,1.17,0,0,1-.42,0,2.36,2.36,0,0,1-1.47-.43L.71,29h0s0,0,.07-.08a1.75,1.75,0,0,1,1.06-.39h.34a2,2,0,0,1,.71.11,5,5,0,0,0,1.52.17c2.81,0,3-.3,3.13-.5l.08-.17h.43a2.58,2.58,0,0,0,.68-.07c0,.6,0,1.21,0,1.82A1,1,0,0,0,8.46,29.86Zm34-16.7.24-.26.17-.18.1,0a.86.86,0,0,0,.27.05.68.68,0,0,0,.36-.1.66.66,0,0,0,.3-.36c.12-.16.53-.55.83-.85a7.94,7.94,0,0,0,1.84-2.21,2.61,2.61,0,0,1,1.57-1l.06.06a1.14,1.14,0,0,1-.15.6A2.67,2.67,0,0,1,47,10.08a6.55,6.55,0,0,0-1.7,1.79,10.82,10.82,0,0,1-.74.89.7.7,0,0,0-.33.26.81.81,0,0,0-.06.87l-.21.23c-.06.06-.11.13-.18.19a.93.93,0,0,0-.22.27c-.42-.42-.85-.82-1.3-1.2A.83.83,0,0,0,42.45,13.16ZM28.13,7.85V7.58a.91.91,0,0,0,.17-.17,11.82,11.82,0,0,0,.29-4.67,2.1,2.1,0,0,1,.4-2,.23.23,0,0,1,.08.07,1.92,1.92,0,0,1,.39,1.15,2.47,2.47,0,0,1-.11,1,11.35,11.35,0,0,0,.16,4.45.71.71,0,0,0,.35.26v.14a2,2,0,0,0,0,.87l-.83,0-1,0a1.35,1.35,0,0,0,0-.4C28.12,8.11,28.13,8,28.13,7.85ZM12.87,15.29l-.19-.19a.82.82,0,0,0,0-.27,10.94,10.94,0,0,0-3.31-3.37A2.59,2.59,0,0,1,8.22,9.91a.24.24,0,0,1,0-.09h.11a1.18,1.18,0,0,1,.56.15,2.77,2.77,0,0,1,1.2,1.1C10.41,11.67,13,14,13.55,14h0a.63.63,0,0,0,.19,0l.14-.05,0,0L14,14a4,4,0,0,1,.37.35,1.13,1.13,0,0,0,.27.22c-.42.41-.81.85-1.19,1.3a1.24,1.24,0,0,0-.32-.33A3.85,3.85,0,0,1,12.87,15.29Zm2.74,29.46c-.09.11-.2.22-.3.33l-.22.23H15c-.66,0-3.24,2.53-3.56,3.36a2.64,2.64,0,0,1-1.56,1.11h0c-.07,0-.09,0-.09-.08a1.18,1.18,0,0,1,.15-.57,2.68,2.68,0,0,1,1.11-1.22,8.14,8.14,0,0,0,2.06-2.11l.09-.11.05-.07.06-.08.15-.22c.32-.44.6-.83.4-1.21l.08-.06a2.32,2.32,0,0,0,.65-.79c.43.44.87.84,1.31,1.23A1.33,1.33,0,0,0,15.61,44.75ZM29.85,49.9v.54a.61.61,0,0,0-.16.16,11.89,11.89,0,0,0-.3,4.68,2.12,2.12,0,0,1-.38,2,.2.2,0,0,1-.09-.07,2,2,0,0,1-.4-1.2,2.51,2.51,0,0,1,.12-1,11.41,11.41,0,0,0-.19-4.45.7.7,0,0,0-.32-.24c0-.13,0-.25,0-.38a2.26,2.26,0,0,1,0-.26,1.15,1.15,0,0,0,0-.38h.68l1.14,0A1.82,1.82,0,0,0,29.85,49.9Zm15.46-7a.5.5,0,0,0,0,.21,11.66,11.66,0,0,0,3.24,3.42,2.17,2.17,0,0,1,1.24,1.65.58.58,0,0,1-.14,0,.94.94,0,0,1-.43-.1A2.69,2.69,0,0,1,47.91,47c-.37-.7-2.95-2.88-3.54-2.88a.71.71,0,0,0-.24.06l-.23-.21a1.62,1.62,0,0,1-.19-.18,1.13,1.13,0,0,0-.3-.24c.27-.27.53-.55.78-.83l.42-.48a1,1,0,0,0,.21.25,4,4,0,0,1,.31.27Zm-1.65-.68a19.11,19.11,0,0,1-7.17,5c-.1,0-1.55.58-2.16.73a23.8,23.8,0,0,1-5.55.69c-5.55,0-10.43-2.24-14.56-6.82A18.67,18.67,0,0,1,9.47,30.33,19.69,19.69,0,0,1,21.88,10.69l.4-.15a19.42,19.42,0,0,1,6.78-1.22,19.69,19.69,0,0,1,14.62,6.47A19.14,19.14,0,0,1,48.6,26.42,19.3,19.3,0,0,1,43.66,42.22ZM57.2,29.08a2,2,0,0,1-1.18.39h-.21a2.28,2.28,0,0,1-.73-.12,4.88,4.88,0,0,0-1.63-.17c-2.85,0-2.91.19-3.05.61a.14.14,0,0,0,0,.07H50.2a2.53,2.53,0,0,0-.74.09c0-.61,0-1.23,0-1.85a1.24,1.24,0,0,0,.33,0h.61c.24.3,1,.58,3.6.58a3.88,3.88,0,0,0,1.37-.16,1.36,1.36,0,0,1,.42,0,2.2,2.2,0,0,1,1.49.49A.22.22,0,0,1,57.2,29.08Z"/><path d="M35,15.56A14.85,14.85,0,0,0,15.18,34.05l4.87,0,2.41,0a3.73,3.73,0,0,0,2.85-1.35,4.23,4.23,0,1,0-7.45-2.87c0,.15-.06.48-.4.48h0c-.38,0-.41-.39-.41-.5a11.66,11.66,0,0,1,.89-4.38,12,12,0,0,1,12.85-7.22A11.89,11.89,0,0,1,41,29.86c.06,2.47,1.16,3.64,2.32,4a14.92,14.92,0,0,0,.73-4.61,14.83,14.83,0,0,0-4.35-10.5A14.83,14.83,0,0,0,35,15.56Z"/><path d="M40.22,29.82a11.92,11.92,0,0,0-.2-2,11.21,11.21,0,0,0-16.53-7.51l-.07,0a5.63,5.63,0,0,0-1.18.83.43.43,0,0,0-.11.42.46.46,0,0,0,.33.32.7.7,0,0,0,.29,0l.2-.06H23a8.64,8.64,0,0,1,3.22-.35,8.5,8.5,0,0,1,7.88,8.59,7.25,7.25,0,0,0,2.5,5.41,9.92,9.92,0,0,0,4.24,1.92,6,6,0,0,0,.73.07A14.33,14.33,0,0,0,42.91,35c.05-.11.09-.23.14-.34h0C41.21,34.18,40.27,32.55,40.22,29.82Z"/><path d="M27,37.35a7.6,7.6,0,0,0,1.6-14.48,7.72,7.72,0,0,0-7.59.87l-.09.07a1.74,1.74,0,0,0-.51.48.45.45,0,0,0,.1.57.77.77,0,0,0,.68.13,5.11,5.11,0,0,1,1.95,0A5,5,0,0,1,27,30.8a4.68,4.68,0,0,1-4.45,4c-2.08,0-5.91,0-7.11,0,0,.06,0,.12.07.17a14.24,14.24,0,0,0,1.33,2.46l8.22,0A12.31,12.31,0,0,0,27,37.35Z"/><path d="M39.77,38.05a11.17,11.17,0,0,1-3-1.39,10.75,10.75,0,0,1-2.18-2.29,7,7,0,0,1-.36-.61L34,33.44a.48.48,0,0,0-.38-.22.45.45,0,0,0-.37.23,9.67,9.67,0,0,1-1.33,2,8.55,8.55,0,0,1-6.48,2.86h-8a15.57,15.57,0,0,0,1.26,1.45A14.85,14.85,0,0,0,35,42.92a14.51,14.51,0,0,0,4.72-3.18A14.17,14.17,0,0,0,41,38.24a10.07,10.07,0,0,1-1-.15Z"/><path d="M29,10A19,19,0,1,0,48,29,19,19,0,0,0,29,10Zm8,3.24a.55.55,0,0,1,.58.54.52.52,0,0,1-.52.52.56.56,0,0,1-.56-.57A.49.49,0,0,1,37,13.25ZM28.9,11.3a.52.52,0,0,1,.54.53.55.55,0,0,1-.56.52.53.53,0,1,1,0-1Zm-8.08,2a.53.53,0,0,1,.5.54.55.55,0,0,1-.59.53.5.5,0,0,1-.48-.55A.57.57,0,0,1,20.82,13.34Zm-6.24,5.6a.52.52,0,0,1,.52.52.56.56,0,0,1-.55.57.52.52,0,0,1-.52-.52A.59.59,0,0,1,14.58,18.94Zm-2.92,9a.55.55,0,1,1,.55-.5A.54.54,0,0,1,11.66,27.9Zm1,7.87a.55.55,0,0,1-.52-.57.52.52,0,0,1,.52-.52.56.56,0,0,1,.54.59A.52.52,0,0,1,12.64,35.77Zm4.71,6.93a.58.58,0,0,1-.56-.54.52.52,0,0,1,.51-.53.57.57,0,0,1,.58.52A.53.53,0,0,1,17.35,42.7Zm7.38,3.94a.56.56,0,0,1-.57-.52.53.53,0,0,1,.55-.53.54.54,0,0,1,.55.54A.52.52,0,0,1,24.73,46.64Zm8.33.06a.52.52,0,0,1-.52-.55.53.53,0,0,1,.58-.5.5.5,0,0,1,.5.53A.54.54,0,0,1,33.06,46.7Zm7.41-3.86a.5.5,0,0,1-.5-.53.56.56,0,0,1,.58-.53.5.5,0,0,1,.49.51A.55.55,0,0,1,40.47,42.84Zm5.82-16.25a.54.54,0,0,1,0,1.08.54.54,0,0,1-.56-.56A.52.52,0,0,1,46.29,26.59Zm-1,8.3a.52.52,0,0,1,.52.53.57.57,0,0,1-.56.57.52.52,0,0,1-.49-.55A.54.54,0,0,1,45.29,34.89ZM29.23,44.83A15.59,15.59,0,1,1,44.82,29.24,15.59,15.59,0,0,1,29.23,44.83Zm14-26.06a.57.57,0,0,1,.58.54.53.53,0,0,1-.51.54.57.57,0,0,1-.56-.53A.51.51,0,0,1,43.27,18.77Z"/>
        </g>
    </g>
</svg>
