<svg xmlns="http://www.w3.org/2000/svg" viewBox="0 0 58 58"><g fill="#005384"><path d="M57.76,28.45a2.94,2.94,0,0,0-2-.65,2.13,2.13,0,0,0-.67.09A3.64,3.64,0,0,1,54,28a14.28,14.28,0,0,1-3-.29c0-.23-.12-.3-.32-.3h-1c-.17,0-.22-.07-.23-.26a6.85,6.85,0,0,0-.07-.78,20.28,20.28,0,0,0-5.2-11.18c-.12-.14-.16-.23,0-.37s.31-.37.49-.53.38-.43.08-.7c0,0-.08-.11,0-.18h0c.39,0,1.75-2.31,2.53-2.72a3.45,3.45,0,0,0,1.38-1.48,1.76,1.76,0,0,0,.24-1,.72.72,0,0,0-.76-.73h0A3.07,3.07,0,0,0,45.91,9c-.31.83-2.63,2.7-2.67,3.05A1.18,1.18,0,0,1,43,12a.31.31,0,0,0-.22-.11c-.1,0-.19.08-.28.19s-.39.42-.57.64-.12.12-.19.12a.28.28,0,0,1-.18-.08A20.27,20.27,0,0,0,31.43,8.66H31c-.18,0-.34,0-.42-.13s-.06-.56,0-.86,0-.69-.48-.7A13.78,13.78,0,0,1,30,3.14a3,3,0,0,0,.14-1.25A2.55,2.55,0,0,0,29.62.34.81.81,0,0,0,29,0a.74.74,0,0,0-.58.31,2.79,2.79,0,0,0-.49,2.63A12.79,12.79,0,0,1,27.71,7c-.23,0-.31.12-.29.36s0,.61,0,.92-.08.33-.32.35A20.21,20.21,0,0,0,15.3,13.89a.27.27,0,0,1-.19.1c-.06,0-.11,0-.18-.11s-.36-.34-.55-.51A1.42,1.42,0,0,0,14,13h0c-.12,0-.23.19-.37.23h0a14.09,14.09,0,0,1-2.84-2.51A3.45,3.45,0,0,0,9.24,9.34a1.9,1.9,0,0,0-.91-.24h0a.72.72,0,0,0-.79.83A3.14,3.14,0,0,0,9.1,12.12,12,12,0,0,1,12,15c-.16.19-.13.33.06.48s.46.45.71.64.2.3,0,.51a20.14,20.14,0,0,0-4,10.17c-.07.62-.07.62-.69.62H7.69l-.34,0a.76.76,0,0,0-.21,0c-.18.08-.1.33-.2.49a22.24,22.24,0,0,1-2.53.17A4.69,4.69,0,0,1,3.13,28a2.9,2.9,0,0,0-.95-.15,2.68,2.68,0,0,0-.4,0A2.51,2.51,0,0,0,.3,28.4a.75.75,0,0,0,0,1.16,3,3,0,0,0,2,.64,1.82,1.82,0,0,0,.67-.1A3.92,3.92,0,0,1,4.07,30,12.92,12.92,0,0,1,7,30.28c0,.25.14.3.33.3H8.46c.19,0,.23.08.25.29a20.43,20.43,0,0,0,4.66,11.25c.21.26.63.5.6.77s-.4.54-.66.78-.42.46-.09.76c0,0-.54.76-.54.78h0a9.6,9.6,0,0,1-2,2.08,3.49,3.49,0,0,0-1.4,1.5,1.83,1.83,0,0,0-.23.95.73.73,0,0,0,.76.76H9.9a3.2,3.2,0,0,0,2.2-1.56A12.11,12.11,0,0,1,15,46h0a.33.33,0,0,0,.21.1c.09,0,.17-.06.26-.17.22-.26.47-.49.69-.75.07-.09.12-.13.18-.13a.4.4,0,0,1,.21.1,19.25,19.25,0,0,0,4.15,2.5,19.69,19.69,0,0,0,6.43,1.7c.23,0,.31.09.29.32s0,.48,0,.72,0,.62.46.62A13.62,13.62,0,0,1,28,54.85a3,3,0,0,0-.15,1.22,2.63,2.63,0,0,0,.57,1.61A.83.83,0,0,0,29,58a.74.74,0,0,0,.57-.29,2.82,2.82,0,0,0,.5-2.63A13.07,13.07,0,0,1,30.3,51c.21,0,.3-.12.28-.34a6.26,6.26,0,0,1,0-.75c0-.48,0-.48.48-.52A20.29,20.29,0,0,0,38.79,47a19.7,19.7,0,0,0,4-2.8.37.37,0,0,1,.22-.12.31.31,0,0,1,.21.12c.15.17.34.3.5.47s.24.26.38.26a.43.43,0,0,0,.3-.17h0a12.82,12.82,0,0,1,2.92,2.5,3.37,3.37,0,0,0,1.64,1.44,1.63,1.63,0,0,0,.73.17h0a.72.72,0,0,0,.81-.87,2.75,2.75,0,0,0-1.59-2.14A13.48,13.48,0,0,1,46,43c.19-.21.08-.33-.09-.48l-.65-.59c-.15-.12-.13-.2,0-.34a20.24,20.24,0,0,0,4.18-10.32c.08-.68.09-.68.78-.68h.35a.8.8,0,0,0,.32,0c.11-.05.12-.33.18-.5a23.61,23.61,0,0,1,2.38-.13,5.12,5.12,0,0,1,1.4.13,3,3,0,0,0,1,.16h.25a2.68,2.68,0,0,0,1.59-.55A.76.76,0,0,0,57.76,28.45ZM8.46,29.86H7.59c-.26-.3-1-.6-3.52-.6a4.17,4.17,0,0,0-1.42.18,1.17,1.17,0,0,1-.42,0,2.36,2.36,0,0,1-1.47-.43L.71,29h0s0,0,.07-.08a1.75,1.75,0,0,1,1.06-.39h.34a2,2,0,0,1,.71.11,5,5,0,0,0,1.52.17c2.81,0,3-.3,3.13-.5a1.4,1.4,0,0,0,.09-.17h.43a2.55,2.55,0,0,0,.67-.07c0,.6,0,1.21,0,1.82A1,1,0,0,0,8.46,29.86Zm34-16.7c.07-.09.15-.17.23-.26l.17-.18.1,0a.86.86,0,0,0,.27.05.65.65,0,0,0,.36-.1.73.73,0,0,0,.31-.36,11.51,11.51,0,0,1,.82-.85,8,8,0,0,0,1.85-2.21,2.56,2.56,0,0,1,1.56-1l.06.06a1.14,1.14,0,0,1-.15.6A2.67,2.67,0,0,1,47,10.08a6.7,6.7,0,0,0-1.7,1.79,9.11,9.11,0,0,1-.74.89.7.7,0,0,0-.33.26.81.81,0,0,0-.06.87l-.21.23c-.06.06-.11.13-.18.19a1.13,1.13,0,0,0-.22.27c-.42-.42-.85-.82-1.3-1.2A1,1,0,0,0,42.47,13.16ZM28.14,7.85V7.58a1.37,1.37,0,0,0,.17-.17,11.82,11.82,0,0,0,.29-4.67,2.08,2.08,0,0,1,.4-2,.23.23,0,0,1,.08.07,1.92,1.92,0,0,1,.38,1.15,2.31,2.31,0,0,1-.1,1,11.56,11.56,0,0,0,.15,4.45.78.78,0,0,0,.36.26v.14a2,2,0,0,0,0,.87l-.83,0-1,0a1.35,1.35,0,0,0,0-.4A2.41,2.41,0,0,1,28.14,7.85ZM12.87,15.29l-.19-.19a.62.62,0,0,0,0-.27,10.83,10.83,0,0,0-3.31-3.37A2.59,2.59,0,0,1,8.22,9.91V9.82h.11a1.18,1.18,0,0,1,.56.15,2.77,2.77,0,0,1,1.2,1.1C10.41,11.67,13,14,13.55,14h0a.69.69,0,0,0,.2,0l.13-.05,0,0,.15.13a4,4,0,0,1,.36.35,1.74,1.74,0,0,0,.27.22c-.41.41-.81.85-1.19,1.3a1.11,1.11,0,0,0-.32-.33A3.85,3.85,0,0,1,12.87,15.29Zm2.75,29.46-.31.33-.21.23H15c-.66,0-3.23,2.53-3.56,3.36a2.64,2.64,0,0,1-1.55,1.11h0c-.07,0-.1,0-.09-.08a1.07,1.07,0,0,1,.14-.57,2.68,2.68,0,0,1,1.11-1.22,8.33,8.33,0,0,0,2.07-2.11l.08-.11.06-.07.05-.08.16-.22c.32-.44.6-.83.4-1.21l.07-.06a2.11,2.11,0,0,0,.65-.79c.43.44.87.84,1.32,1.23A1,1,0,0,0,15.62,44.75ZM29.86,49.9v.21c0,.11,0,.22,0,.33a.49.49,0,0,0-.16.16,11.89,11.89,0,0,0-.3,4.68,2.14,2.14,0,0,1-.38,2,.25.25,0,0,1-.1-.07,2,2,0,0,1-.39-1.2,2.33,2.33,0,0,1,.12-1,11.61,11.61,0,0,0-.19-4.45.75.75,0,0,0-.32-.24V50a2.26,2.26,0,0,1,0-.26,1.15,1.15,0,0,0,0-.38h.68l1.13,0A2.23,2.23,0,0,0,29.86,49.9Zm15.46-7a.74.74,0,0,0,0,.21,11.79,11.79,0,0,0,3.24,3.42,2.14,2.14,0,0,1,1.24,1.65.49.49,0,0,1-.14,0,.94.94,0,0,1-.43-.1A2.62,2.62,0,0,1,47.93,47c-.38-.7-3-2.88-3.55-2.88a.71.71,0,0,0-.24.06l-.23-.21a1.62,1.62,0,0,1-.19-.18,1.13,1.13,0,0,0-.3-.24c.27-.27.53-.55.78-.83l.42-.48a.88.88,0,0,0,.22.25l.3.27Zm-1.65-.68a19.11,19.11,0,0,1-7.17,5c-.1,0-1.55.58-2.16.73a23.8,23.8,0,0,1-5.55.69c-5.56,0-10.44-2.24-14.57-6.82A18.67,18.67,0,0,1,9.47,30.33,19.69,19.69,0,0,1,21.89,10.69l.4-.15a19.42,19.42,0,0,1,6.78-1.22,19.7,19.7,0,0,1,14.62,6.47,19.14,19.14,0,0,1,4.92,10.63A19.3,19.3,0,0,1,43.67,42.22ZM57.21,29.08a2,2,0,0,1-1.18.39h-.2a2.3,2.3,0,0,1-.74-.12,4.78,4.78,0,0,0-1.63-.17c-2.85,0-2.91.19-3.05.61a.64.64,0,0,0,0,.07h-.18a2.58,2.58,0,0,0-.74.09c0-.61,0-1.23,0-1.85a1.27,1.27,0,0,0,.34,0h.61c.24.3,1,.58,3.59.58a4,4,0,0,0,1.38-.16,1.36,1.36,0,0,1,.42,0,2.22,2.22,0,0,1,1.49.49S57.28,29,57.21,29.08Z"/><path d="M35,15.56A14.85,14.85,0,0,0,15.19,34.05l4.86,0,2.42,0a3.7,3.7,0,0,0,2.84-1.35,4.22,4.22,0,1,0-7.44-2.87c0,.15-.06.48-.41.48h0c-.37,0-.4-.39-.4-.5A11.28,11.28,0,0,1,18,25.39a12,12,0,0,1,12.84-7.22A11.88,11.88,0,0,1,41,29.86c.06,2.47,1.16,3.64,2.32,4a14.92,14.92,0,0,0,.73-4.61,14.83,14.83,0,0,0-4.35-10.5A14.83,14.83,0,0,0,35,15.56Z"/><path d="M40.23,29.82A11.19,11.19,0,0,0,23.5,20.29l-.07,0a6,6,0,0,0-1.19.83.43.43,0,0,0-.1.42.46.46,0,0,0,.33.32.67.67,0,0,0,.28,0l.21-.06H23a8.61,8.61,0,0,1,3.21-.35,8.5,8.5,0,0,1,7.88,8.59,7.3,7.3,0,0,0,2.51,5.41,9.92,9.92,0,0,0,4.24,1.92,6,6,0,0,0,.73.07A14.33,14.33,0,0,0,42.92,35c0-.11.09-.23.14-.34h0C41.22,34.18,40.28,32.55,40.23,29.82Z"/><path d="M27,37.35A7.59,7.59,0,0,0,28.6,22.87a7.7,7.7,0,0,0-7.58.87l-.09.07a1.74,1.74,0,0,0-.51.48.42.42,0,0,0,.1.57.77.77,0,0,0,.68.13,5.11,5.11,0,0,1,1.95,0,5,5,0,0,1,3.9,5.79,4.69,4.69,0,0,1-4.46,4c-2.07,0-5.9,0-7.1,0l.06.17a15,15,0,0,0,1.33,2.46l8.23,0A12.31,12.31,0,0,0,27,37.35Z"/><path d="M39.78,38.05a11.17,11.17,0,0,1-3-1.39,10.75,10.75,0,0,1-2.18-2.29,7,7,0,0,1-.36-.61l-.19-.32a.48.48,0,0,0-.38-.22.48.48,0,0,0-.38.23,9.29,9.29,0,0,1-1.32,2,8.58,8.58,0,0,1-6.48,2.86h-8a15.57,15.57,0,0,0,1.26,1.45,14.83,14.83,0,0,0,10.5,4.35A14.67,14.67,0,0,0,35,42.92a14.51,14.51,0,0,0,4.72-3.18A14.17,14.17,0,0,0,41,38.24c-.28,0-.56-.07-1-.15Z"/><path d="M29,10A19,19,0,1,0,48,29,19,19,0,0,0,29,10Zm8,3.24a.55.55,0,0,1,.58.54.52.52,0,0,1-.52.52.56.56,0,0,1-.56-.57A.49.49,0,0,1,37,13.25ZM28.91,11.3a.52.52,0,0,1,.54.53.55.55,0,0,1-.56.52.53.53,0,1,1,0-1Zm-8.09,2a.53.53,0,0,1,.51.54.56.56,0,0,1-.6.53.5.5,0,0,1-.48-.55A.58.58,0,0,1,20.82,13.34Zm-6.23,5.6a.52.52,0,0,1,.51.52.56.56,0,0,1-.55.57.53.53,0,0,1-.52-.52A.6.6,0,0,1,14.59,18.94Zm-2.93,9a.55.55,0,1,1,.55-.5A.53.53,0,0,1,11.66,27.9Zm1,7.87a.55.55,0,0,1-.52-.57.52.52,0,0,1,.52-.52.56.56,0,0,1,.54.59A.51.51,0,0,1,12.64,35.77Zm4.71,6.93a.57.57,0,0,1-.55-.54.51.51,0,0,1,.51-.53.57.57,0,0,1,.57.52A.53.53,0,0,1,17.35,42.7Zm7.39,3.94a.55.55,0,0,1-.57-.52.52.52,0,0,1,.55-.53.53.53,0,0,1,.54.54A.51.51,0,0,1,24.74,46.64Zm8.33.06a.52.52,0,0,1-.52-.55.53.53,0,0,1,.58-.5.5.5,0,0,1,.5.53A.55.55,0,0,1,33.07,46.7Zm7.41-3.86a.5.5,0,0,1-.5-.53.56.56,0,0,1,.58-.53.5.5,0,0,1,.49.51A.55.55,0,0,1,40.48,42.84ZM46.3,26.59a.5.5,0,0,1,.52.54.5.5,0,0,1-.49.54.53.53,0,0,1-.55-.56A.51.51,0,0,1,46.3,26.59Zm-1,8.3a.52.52,0,0,1,.51.53.57.57,0,0,1-.56.57.52.52,0,0,1-.49-.55A.55.55,0,0,1,45.31,34.89ZM29.24,44.83A15.59,15.59,0,1,1,44.83,29.24,15.59,15.59,0,0,1,29.24,44.83Zm14-26.06a.56.56,0,0,1,.58.54.53.53,0,0,1-.51.54.57.57,0,0,1-.56-.53A.51.51,0,0,1,43.28,18.77Z"/></g></svg>
